<?xml version="1.0" encoding="UTF-8" standalone="no"?>
<!DOCTYPE svg PUBLIC "-//W3C//DTD SVG 1.1//EN" "http://www.w3.org/Graphics/SVG/1.1/DTD/svg11.dtd">
<svg width="100%" height="100%" viewBox="0 0 1005 170" version="1.1" xmlns="http://www.w3.org/2000/svg" xmlns:xlink="http://www.w3.org/1999/xlink" xml:space="preserve" xmlns:serif="http://www.serif.com/" style="fill-rule:evenodd;clip-rule:evenodd;stroke-linejoin:round;stroke-miterlimit:2;">
    <g transform="matrix(1,0,0,1,0.000223389,0.000249478)">
        <g transform="matrix(1,0,0,1,-170.538,-489.85)">
            <g transform="matrix(0.147855,0,0,0.147855,170.041,489.224)">
                <g>
                    <path d="M1335.99,13.239C1381.26,35.763 1541.08,378.835 1228.05,433.969" style="fill:rgb(229,35,41);fill-rule:nonzero;"/>
                    <path d="M1228.05,442.976C1223.75,442.976 1219.95,439.906 1219.18,435.537C1218.32,430.641 1221.59,425.971 1226.5,425.11C1332.76,406.391 1393.05,352.688 1405.66,265.508C1421.75,154.268 1353.24,31.875 1331.98,21.297C1327.53,19.083 1325.7,13.678 1327.92,9.23C1330.14,4.768 1335.57,2.987 1340,5.177C1371.95,21.079 1440.11,153.154 1423.48,268.082C1413.94,333.911 1372.59,417.655 1229.62,442.835C1229.1,442.933 1228.57,442.976 1228.05,442.976" style="fill:rgb(252,208,0);fill-rule:nonzero;"/>
                    <path d="M655.964,16.84L1335.99,13.239L1228.05,433.969L580.386,391.93L655.964,16.84Z" style="fill:rgb(138,30,31);fill-rule:nonzero;"/>
                    <path d="M591.254,383.609L1221.19,424.5L1324.37,22.299L663.329,25.807L591.254,383.609ZM1228.06,442.975C1227.87,442.975 1227.66,442.965 1227.48,442.956L579.824,400.911C577.221,400.746 574.83,399.461 573.248,397.403C571.665,395.339 571.066,392.693 571.56,390.153L647.134,15.063C647.978,10.879 651.638,7.862 655.909,7.838L1335.94,4.232L1335.99,4.232C1338.75,4.232 1341.39,5.507 1343.08,7.697C1344.8,9.896 1345.4,12.772 1344.71,15.467L1236.77,436.202C1235.74,440.212 1232.14,442.975 1228.06,442.975" style="fill:rgb(252,208,0);fill-rule:nonzero;"/>
                    <path d="M186.398,581.785L580.385,391.93L1228.05,433.969L855.648,674.433L186.398,581.785Z" style="fill:rgb(138,30,31);fill-rule:nonzero;"/>
                    <path d="M217.169,576.954L853.572,665.062L1200.28,441.19L582.179,401.062L217.169,576.954ZM855.648,683.435C855.224,683.435 854.821,683.411 854.416,683.348L185.167,590.699C181.229,590.154 178.131,587.103 177.499,583.183C176.902,579.26 178.924,575.401 182.494,573.68L576.483,383.823C577.871,383.142 579.4,382.865 580.985,382.942L1228.64,424.987C1232.51,425.24 1235.78,427.95 1236.77,431.702C1237.75,435.468 1236.2,439.429 1232.93,441.531L860.535,681.995C859.06,682.944 857.37,683.435 855.648,683.435" style="fill:rgb(252,208,0);fill-rule:nonzero;"/>
                    <path d="M260.919,622.57C269.921,584.305 341.946,539.293 373.456,539.293C404.966,539.293 580.527,458.263 580.527,458.263L647.134,472.813C647.134,472.813 986.032,485.711 1008.35,495.623C1030.68,505.529 1149.97,579.805 1149.97,579.805L1089.2,831.888L585.028,910.665L260.919,622.57Z" style="fill:rgb(155,110,18);fill-rule:nonzero;"/>
                    <path d="M859.06,399.666C810.071,390.601 777.4,399.549 775.956,407.427C774.497,415.304 801.806,435.342 850.794,444.396C899.749,453.462 932.419,444.513 933.879,436.626C935.339,428.758 908.03,408.721 859.06,399.666M847.594,461.631C799.782,452.795 753.906,430.242 758.726,404.234C763.543,378.237 814.431,373.581 862.242,382.422C910.054,391.258 955.912,413.82 951.111,439.818C946.311,465.826 895.389,470.478 847.594,461.631" style="fill:rgb(242,153,18);fill-rule:nonzero;"/>
                    <path d="M860.889,389.798C811.897,380.733 779.227,389.676 777.785,397.564C776.307,405.451 803.634,425.478 852.604,434.533C901.579,443.598 934.249,434.655 935.709,426.763C937.169,418.885 909.86,398.858 860.889,389.798M849.422,451.768C801.612,442.932 755.735,420.379 760.552,394.372C765.353,368.374 816.26,363.723 864.071,372.569C911.865,381.404 957.742,403.957 952.924,429.955C948.123,455.962 897.216,460.609 849.422,451.768" style="fill:rgb(242,153,18);fill-rule:nonzero;"/>
                    <path d="M942.496,438.227C939.332,455.344 897.549,461.967 849.176,453.023C800.82,444.076 764.175,422.944 767.34,405.826C770.505,388.718 812.284,382.101 860.642,391.039C909.016,399.992 945.662,421.119 942.496,438.227" style="fill:rgb(242,153,18);fill-rule:nonzero;"/>
                </g>
            </g>
        </g>
        <g transform="matrix(1,0,0,1,-170.538,-489.85)">
            <g transform="matrix(0.147855,0,0,0.147855,170.041,489.224)">
                <g>
                    <path d="M769.169,395.963C766.004,413.081 802.648,434.207 851.006,443.16C899.378,452.098 941.158,445.482 944.324,428.364C947.488,411.252 910.827,390.124 862.469,381.177C847.857,378.474 833.846,377.193 821.318,377.193C792.39,377.193 771.377,384.025 769.169,395.963Z" style="fill:url(#_Linear1);fill-rule:nonzero;"/>
                </g>
            </g>
        </g>
        <g transform="matrix(1,0,0,1,-170.538,-489.85)">
            <g transform="matrix(0.147855,0,0,0.147855,170.041,489.224)">
                <g>
                    <path d="M583.588,427.026C534.526,418.39 501.961,427.625 500.554,435.517C499.182,443.414 526.649,463.202 575.71,471.83C624.769,480.457 657.352,471.221 658.742,463.33C660.131,455.441 632.647,435.652 583.588,427.026M572.684,489.089C524.786,480.667 478.714,458.527 483.305,432.476C487.893,406.444 538.748,401.335 586.646,409.757C634.51,418.171 680.582,440.329 676.007,466.36C671.42,492.412 620.548,497.51 572.684,489.089" style="fill:rgb(242,153,18);fill-rule:nonzero;"/>
                    <path d="M585.344,417.144C536.285,408.517 503.685,417.743 502.313,425.635C500.906,433.541 528.39,453.321 577.467,461.957C626.509,470.58 659.091,461.359 660.481,453.447C661.87,445.55 634.386,425.771 585.344,417.144M574.408,479.207C526.544,470.794 480.473,448.645 485.044,422.603C489.615,396.562 540.487,391.463 588.368,399.885C636.249,408.308 682.32,430.447 677.731,456.489C673.16,482.53 622.307,487.629 574.408,479.207" style="fill:rgb(242,153,18);fill-rule:nonzero;"/>
                    <path d="M667.375,464.847C664.369,481.994 622.64,488.982 574.196,480.461C525.753,471.946 488.913,451.141 491.937,433.998C494.963,416.861 536.672,409.874 585.115,418.389C633.561,426.904 670.382,447.716 667.375,464.847" style="fill:rgb(242,153,18);fill-rule:nonzero;"/>
                </g>
            </g>
        </g>
        <g transform="matrix(1,0,0,1,-170.538,-489.85)">
            <g transform="matrix(0.147855,0,0,0.147855,170.041,489.224)">
                <g>
                    <path d="M493.678,424.116C490.672,441.259 527.493,462.065 575.936,470.589C624.383,479.099 666.091,472.112 669.115,454.965C672.138,437.832 635.283,417.027 586.857,408.511C572.843,406.048 559.397,404.881 547.285,404.881C517.512,404.882 495.816,411.935 493.678,424.116Z" style="fill:url(#_Linear2);fill-rule:nonzero;"/>
                </g>
            </g>
        </g>
        <g transform="matrix(1,0,0,1,-170.538,-489.85)">
            <g transform="matrix(0.147855,0,0,0.147855,170.041,489.224)">
                <g>
                    <path d="M447.52,491.2C401.697,510.751 379.453,536.276 382.599,543.653C385.747,551.019 419.562,552.6 465.387,533.041C511.176,513.486 533.437,487.964 530.308,480.588C527.14,473.221 493.346,471.636 447.52,491.2M472.262,549.147C427.546,568.243 376.867,574.856 366.477,550.528C356.083,526.208 395.929,494.163 440.645,475.066C485.344,455.987 536.04,449.403 546.414,473.713C556.807,498.031 516.978,530.068 472.262,549.147" style="fill:rgb(242,153,18);fill-rule:nonzero;"/>
                    <path d="M443.581,481.965C397.775,501.53 375.514,527.051 378.663,534.422C381.808,541.799 415.623,543.371 461.448,523.815C507.271,504.264 529.532,478.739 526.367,471.358C523.204,463.986 489.387,462.414 443.581,481.965M468.323,539.925C423.607,559.019 372.928,565.616 362.554,541.303C352.162,516.984 391.99,484.938 436.689,465.85C481.422,446.771 532.101,440.169 542.475,464.478C552.868,488.797 513.039,520.846 468.323,539.925" style="fill:rgb(242,153,18);fill-rule:nonzero;"/>
                    <path d="M538.36,477.148C545.182,493.16 514.059,521.796 468.832,541.102C423.588,560.41 381.37,563.09 374.546,547.083C367.724,531.079 398.847,502.444 444.075,483.137C489.299,463.82 531.536,461.149 538.36,477.148" style="fill:rgb(242,153,18);fill-rule:nonzero;"/>
                </g>
            </g>
        </g>
        <g transform="matrix(1,0,0,1,-170.538,-489.85)">
            <g transform="matrix(0.147855,0,0,0.147855,170.041,489.224)">
                <g>
                    <path d="M440.135,473.908C394.909,493.219 363.786,521.849 370.608,537.848C377.431,553.87 419.65,551.186 464.893,531.878C510.12,512.566 541.26,483.926 534.422,467.918C531.428,460.894 521.618,457.47 507.726,457.47C489.962,457.47 465.525,463.07 440.135,473.908Z" style="fill:url(#_Linear3);fill-rule:nonzero;"/>
                </g>
            </g>
        </g>
        <g transform="matrix(1,0,0,1,-170.538,-489.85)">
            <g transform="matrix(0.147855,0,0,0.147855,170.041,489.224)">
                <g>
                    <path d="M675.586,422.18C629.78,441.735 607.536,467.256 610.665,474.633C613.83,482.004 647.645,483.585 693.451,464.021C739.257,444.47 761.519,418.944 758.372,411.568C755.223,404.201 721.409,402.62 675.586,422.18M700.346,480.131C655.61,499.223 604.933,505.836 594.559,481.508C584.167,457.19 623.995,425.143 668.728,406.05C713.426,386.972 764.104,380.384 774.48,404.693C784.887,429.011 745.043,461.053 700.346,480.131" style="fill:rgb(242,153,18);fill-rule:nonzero;"/>
                    <path d="M671.648,412.95C625.858,432.51 603.598,458.035 606.726,465.403C609.892,472.779 643.707,474.356 689.529,454.799C735.337,435.244 757.599,409.724 754.434,402.337C751.285,394.971 717.471,393.394 671.648,412.95M696.404,470.905C651.688,490.003 600.995,496.596 590.619,472.287C580.245,447.968 620.057,415.922 664.772,396.835C709.488,377.756 760.165,371.153 770.559,395.462C780.951,419.782 741.106,451.826 696.404,470.905" style="fill:rgb(242,153,18);fill-rule:nonzero;"/>
                    <path d="M766.444,408.132C773.266,424.14 742.125,452.776 696.898,472.082C651.671,491.394 609.454,494.075 602.613,478.063C595.791,462.065 626.915,433.424 672.158,414.117C717.383,394.799 759.603,392.129 766.444,408.132" style="fill:rgb(242,153,18);fill-rule:nonzero;"/>
                </g>
            </g>
        </g>
        <g transform="matrix(1,0,0,1,-170.538,-489.85)">
            <g transform="matrix(0.147855,0,0,0.147855,170.041,489.224)">
                <g>
                    <path d="M668.218,404.887C622.975,424.204 591.849,452.829 598.674,468.832C605.513,484.85 647.732,482.169 692.96,462.862C738.187,443.545 769.345,414.91 762.505,398.902C759.503,391.878 749.693,388.453 735.799,388.454C718.038,388.455 693.605,394.054 668.218,404.887Z" style="fill:url(#_Linear4);fill-rule:nonzero;"/>
                </g>
            </g>
        </g>
        <g transform="matrix(1,0,0,1,-170.538,-489.85)">
            <g transform="matrix(0.147855,0,0,0.147855,170.041,489.224)">
                <g>
                    <path d="M474.354,526.448C483.709,540.666 481.967,558.396 470.698,567.442C459.336,576.549 441.051,574.501 429.726,561.798C418.437,549.147 419.104,530.01 432.292,519.412C445.569,508.745 465.034,512.263 474.354,526.448" style="fill:rgb(254,254,254);fill-rule:nonzero;"/>
                    <path d="M524.503,499.682C530.147,515.709 524.96,532.321 513.249,538.651C501.398,544.986 484.183,540.398 474.354,526.448C464.613,512.633 468.128,493.117 484.043,484.515C500.043,475.917 518.859,483.639 524.503,499.682" style="fill:rgb(254,254,254);fill-rule:nonzero;"/>
                    <path d="M579.875,487.117C581.247,504.089 571.048,518.726 558.424,521.504C545.922,524.117 530.991,515.49 524.503,499.681C518.031,484.076 526.737,465.455 545.078,461.465C563.224,457.543 578.539,470.238 579.875,487.117" style="fill:rgb(254,254,254);fill-rule:nonzero;"/>
                    <path d="M636.797,485.274C636.814,502.293 623.925,515.933 609.064,516.258C594.348,516.545 581.828,504.016 579.875,487.117C577.923,470.238 590.797,455.096 607.57,454.765C624.17,454.415 636.777,468.302 636.797,485.274" style="fill:rgb(254,254,254);fill-rule:nonzero;"/>
                    <path d="M647.134,472.813C642.386,472.813 638.782,473.815 637.709,475.426C633.245,482.082 650.37,511.291 691.763,539.011C717.524,556.26 744.974,567.407 761.712,567.407C766.461,567.407 770.048,566.415 771.137,564.799C775.603,558.132 758.476,528.925 717.083,501.204C691.325,483.955 663.874,472.813 647.134,472.813M761.712,584.938C741.439,584.938 710.894,572.92 682.022,553.579C641.614,526.516 608.431,487.639 623.15,465.675C626.315,460.935 633.051,455.281 647.134,455.281C667.409,455.281 697.953,467.294 726.825,486.646C767.234,513.689 800.416,552.577 785.697,574.545C782.533,579.284 775.778,584.938 761.712,584.938" style="fill:rgb(242,153,18);fill-rule:nonzero;"/>
                    <path d="M652.71,464.478C647.978,464.478 644.375,465.475 643.303,467.09C638.836,473.755 655.964,502.956 697.356,530.675C723.099,547.924 750.565,559.071 767.306,559.071C772.035,559.071 775.642,558.07 776.731,556.464C778.049,554.484 777.854,547.161 767.71,533.542C757.634,520.019 741.631,505.573 722.677,492.879C696.898,475.62 669.448,464.478 652.71,464.478M767.306,576.604C747.03,576.604 716.488,564.576 687.598,545.234C647.204,518.19 614.006,479.314 628.725,457.329C631.906,452.595 638.624,446.947 652.71,446.947C672.984,446.947 703.544,458.969 732.418,478.31C752.991,492.085 770.505,507.982 781.76,523.062C798.5,545.506 796.179,558.917 791.289,566.211C788.124,570.95 781.372,576.604 767.306,576.604" style="fill:rgb(242,153,18);fill-rule:nonzero;"/>
                    <path d="M778.419,569.674C768.746,584.13 727.76,573.659 686.875,546.299C646.027,518.92 620.742,485.011 630.431,470.555C640.101,456.093 681.107,466.565 721.973,493.924C762.839,521.294 788.107,555.214 778.419,569.674" style="fill:rgb(242,153,18);fill-rule:nonzero;"/>
                </g>
            </g>
        </g>
        <g transform="matrix(1,0,0,1,-170.538,-489.85)">
            <g transform="matrix(0.147855,0,0,0.147855,170.041,489.224)">
                <g>
                    <path d="M636.021,462.21C626.316,476.676 651.601,510.585 692.469,537.956C733.349,565.325 774.338,575.796 784.009,561.336C793.68,546.878 768.395,512.969 727.532,485.589C699.139,466.566 670.683,455.711 652.718,455.712C644.836,455.713 638.971,457.803 636.021,462.21Z" style="fill:url(#_Linear5);fill-rule:nonzero;"/>
                </g>
            </g>
        </g>
        <g transform="matrix(1,0,0,1,-170.538,-489.85)">
            <g transform="matrix(0.147855,0,0,0.147855,170.041,489.224)">
                <g>
                    <path d="M587.104,355.777C582.374,355.777 578.769,356.779 577.679,358.384C573.212,365.041 590.356,394.25 631.731,421.97C657.51,439.219 684.958,450.366 701.7,450.366C706.428,450.366 710.034,449.374 711.124,447.758C715.574,441.092 698.447,411.884 657.054,384.163C631.311,366.914 603.845,355.777 587.104,355.777M701.7,467.897C681.423,467.897 650.881,455.879 621.991,436.538C581.601,409.475 548.419,370.597 563.118,348.633C566.283,343.894 573.036,338.241 587.104,338.241C607.397,338.241 637.922,350.254 666.812,369.605C707.203,396.649 740.401,435.536 725.685,457.509C722.5,462.249 715.766,467.897 701.7,467.897" style="fill:rgb(242,153,18);fill-rule:nonzero;"/>
                    <path d="M592.694,347.442C587.947,347.442 584.361,348.435 583.269,350.05C578.804,356.716 595.929,385.916 637.321,413.635C663.084,430.884 690.55,442.032 707.272,442.032C712.021,442.032 715.607,441.03 716.697,439.424C718.036,437.443 717.824,430.121 707.695,416.502C697.602,402.98 681.6,388.533 662.644,375.838C636.883,358.58 609.433,347.442 592.694,347.442M707.272,459.563C687.015,459.563 656.454,447.536 627.58,428.194C587.173,401.15 553.992,362.273 568.711,340.295C571.876,335.555 578.61,329.911 592.694,329.911C612.969,329.911 643.514,341.929 672.387,361.271C692.96,375.045 710.49,390.942 721.725,406.021C738.466,428.466 736.144,441.876 731.257,449.175C728.092,453.91 721.358,459.563 707.272,459.563" style="fill:rgb(242,153,18);fill-rule:nonzero;"/>
                    <path d="M718.403,452.634C708.715,467.091 667.742,456.62 626.86,429.259C586.013,401.88 560.726,367.971 570.399,353.515C580.087,339.054 621.075,349.525 661.941,376.885C702.807,404.255 728.092,438.174 718.403,452.634" style="fill:rgb(242,153,18);fill-rule:nonzero;"/>
                </g>
            </g>
        </g>
        <g transform="matrix(1,0,0,1,-170.538,-489.85)">
            <g transform="matrix(0.147855,0,0,0.147855,170.041,489.224)">
                <g>
                    <path d="M575.99,345.17C566.302,359.636 591.57,393.545 632.451,420.915C673.336,448.284 714.305,458.756 723.978,444.295C733.667,429.839 708.382,395.928 667.514,368.549C639.122,349.526 610.658,338.671 592.689,338.673C584.806,338.673 578.939,340.764 575.99,345.17Z" style="fill:url(#_Linear6);fill-rule:nonzero;"/>
                </g>
            </g>
        </g>
        <g transform="matrix(1,0,0,1,-170.538,-489.85)">
            <g transform="matrix(0.147855,0,0,0.147855,170.041,489.224)">
                <g>
                    <path d="M850.565,452.546C800.751,452.546 770.258,467.275 770.258,475.294C770.258,483.313 800.751,498.046 850.565,498.046C900.38,498.046 930.872,483.313 930.872,475.294C930.872,467.275 900.38,452.546 850.565,452.546M850.565,515.573C801.944,515.573 752.728,501.739 752.728,475.294C752.728,448.859 801.944,435.015 850.565,435.015C899.185,435.015 948.385,448.859 948.385,475.294C948.385,501.739 899.185,515.573 850.565,515.573" style="fill:rgb(242,153,18);fill-rule:nonzero;"/>
                    <path d="M850.565,442.519C800.751,442.519 770.258,457.242 770.258,465.261C770.258,473.28 800.751,488.009 850.565,488.009C900.38,488.009 930.872,473.28 930.872,465.261C930.872,457.242 900.38,442.519 850.565,442.519M850.565,505.54C801.944,505.54 752.728,491.702 752.728,465.261C752.728,438.826 801.944,424.988 850.565,424.988C899.185,424.988 948.385,438.826 948.385,465.261C948.385,491.702 899.185,505.54 850.565,505.54" style="fill:rgb(242,153,18);fill-rule:nonzero;"/>
                    <path d="M939.628,475.293C939.628,492.703 899.749,506.814 850.565,506.814C801.383,506.814 761.503,492.703 761.503,475.293C761.503,457.884 801.383,443.784 850.565,443.784C899.749,443.784 939.628,457.884 939.628,475.293" style="fill:rgb(242,153,18);fill-rule:nonzero;"/>
                </g>
            </g>
        </g>
        <g transform="matrix(1,0,0,1,-170.538,-489.85)">
            <g transform="matrix(0.147855,0,0,0.147855,170.041,489.224)">
                <g>
                    <path d="M761.503,465.261C761.503,482.671 801.383,496.771 850.565,496.771C899.749,496.771 939.628,482.671 939.628,465.261C939.628,447.861 899.749,433.75 850.565,433.75C801.383,433.75 761.503,447.861 761.503,465.261Z" style="fill:url(#_Linear7);fill-rule:nonzero;"/>
                </g>
            </g>
        </g>
        <g transform="matrix(1,0,0,1,-170.538,-489.85)">
            <g transform="matrix(0.147855,0,0,0.147855,170.041,489.224)">
                <g>
                    <path d="M1084.65,461.553C1034.83,461.553 1004.34,476.277 1004.34,484.296C1004.34,492.315 1034.83,507.053 1084.65,507.053C1134.46,507.053 1164.95,492.315 1164.95,484.296C1164.95,476.277 1134.46,461.553 1084.65,461.553M1084.65,524.574C1036.03,524.574 986.807,510.741 986.807,484.296C986.807,457.86 1036.03,444.022 1084.65,444.022C1133.27,444.022 1182.46,457.86 1182.46,484.296C1182.46,510.741 1133.27,524.574 1084.65,524.574" style="fill:rgb(242,153,18);fill-rule:nonzero;"/>
                    <path d="M1084.65,451.521C1034.83,451.521 1004.34,466.249 1004.34,474.267C1004.34,482.288 1034.83,497.01 1084.65,497.01C1134.46,497.01 1164.95,482.288 1164.95,474.267C1164.95,466.249 1134.46,451.521 1084.65,451.521M1084.65,514.542C1036.03,514.542 986.807,500.702 986.807,474.267C986.807,447.827 1036.03,433.988 1084.65,433.988C1133.27,433.988 1182.46,447.827 1182.46,474.267C1182.46,500.702 1133.27,514.542 1084.65,514.542" style="fill:rgb(242,153,18);fill-rule:nonzero;"/>
                    <path d="M1173.71,484.296C1173.71,501.706 1133.83,515.816 1084.65,515.816C1035.46,515.816 995.582,501.706 995.582,484.296C995.582,466.891 1035.46,452.785 1084.65,452.785C1133.83,452.785 1173.71,466.891 1173.71,484.296" style="fill:rgb(242,153,18);fill-rule:nonzero;"/>
                </g>
            </g>
        </g>
        <g transform="matrix(1,0,0,1,-170.538,-489.85)">
            <g transform="matrix(0.147855,0,0,0.147855,170.041,489.224)">
                <g>
                    <path d="M995.582,474.268C995.582,491.672 1035.46,505.778 1084.65,505.778C1133.83,505.778 1173.71,491.672 1173.71,474.268C1173.71,456.867 1133.83,442.757 1084.65,442.757C1035.46,442.757 995.582,456.867 995.582,474.268Z" style="fill:url(#_Linear8);fill-rule:nonzero;"/>
                </g>
            </g>
        </g>
        <g transform="matrix(1,0,0,1,-170.538,-489.85)">
            <g transform="matrix(0.147855,0,0,0.147855,170.041,489.224)">
                <g>
                    <path d="M1113.71,426.953C1067.89,446.474 1045.59,471.971 1048.76,479.347C1051.88,486.715 1085.7,488.335 1131.54,468.813C1177.37,449.296 1199.63,423.8 1196.5,416.424C1193.35,409.037 1159.54,407.436 1113.71,426.953M1138.4,484.938C1093.66,503.982 1042.97,510.551 1032.61,486.212C1022.24,461.894 1062.12,429.872 1106.85,410.823C1151.57,391.779 1202.27,385.229 1212.64,409.557C1222.98,433.882 1183.13,465.889 1138.4,484.938" style="fill:rgb(242,153,18);fill-rule:nonzero;"/>
                    <path d="M1109.77,417.723C1063.95,437.244 1041.67,462.741 1044.82,470.118C1047.95,477.484 1081.78,479.094 1127.6,459.582C1173.43,440.057 1195.72,414.565 1192.56,407.189C1189.43,399.807 1155.62,398.216 1109.77,417.723M1134.46,475.708C1089.76,494.753 1039.05,501.312 1028.67,476.993C1018.32,452.664 1058.18,420.643 1102.91,401.594C1147.65,382.549 1198.33,375.999 1208.7,400.323C1219.06,424.642 1179.19,456.654 1134.46,475.708" style="fill:rgb(242,153,18);fill-rule:nonzero;"/>
                    <path d="M1204.57,412.983C1211.37,429.006 1180.21,457.612 1134.99,476.885C1089.72,496.148 1047.49,498.795 1040.67,482.782C1033.85,466.765 1065.04,438.163 1110.26,418.895C1155.53,399.622 1197.73,396.975 1204.57,412.983" style="fill:rgb(242,153,18);fill-rule:nonzero;"/>
                </g>
            </g>
        </g>
        <g transform="matrix(1,0,0,1,-170.538,-489.85)">
            <g transform="matrix(0.147855,0,0,0.147855,170.041,489.224)">
                <g>
                    <path d="M1106.34,409.661C1061.1,428.933 1029.92,457.543 1036.73,473.552C1043.57,489.564 1085.79,486.909 1131.05,467.645C1176.27,448.372 1207.45,419.771 1200.63,403.753C1197.64,396.716 1187.8,393.283 1173.87,393.284C1156.11,393.285 1131.69,398.862 1106.34,409.661Z" style="fill:url(#_Linear9);fill-rule:nonzero;"/>
                </g>
            </g>
        </g>
        <g transform="matrix(1,0,0,1,-170.538,-489.85)">
            <g transform="matrix(0.147855,0,0,0.147855,170.041,489.224)">
                <g>
                    <path d="M820.34,496.085L788.231,566.706L710.983,574.204L665.88,511.062L698.025,440.44L775.234,432.952L820.34,496.085Z" style="fill:rgb(99,194,208);fill-rule:nonzero;"/>
                    <path d="M816.647,496.445L773.707,436.334L700.169,443.477L669.609,510.702L712.531,570.802L786.051,563.67L816.647,496.445ZM776.783,429.551L824.049,495.716L790.393,569.748L709.455,577.596L662.169,511.427L695.843,437.4L776.783,429.551Z" style="fill:rgb(164,215,212);fill-rule:nonzero;"/>
                    <path d="M818.773,495.219C819.002,495.515 819.108,495.875 819.16,496.261C819.283,497.458 818.403,498.513 817.208,498.611L669.115,512.828C667.92,512.93 666.865,512.069 666.759,510.891C666.636,509.7 667.514,508.643 668.693,508.537L816.805,494.328C817.595,494.255 818.335,494.626 818.773,495.219" style="fill:rgb(233,102,139);fill-rule:nonzero;"/>
                    <path d="M818.773,495.219C819.002,495.515 819.108,495.875 819.16,496.261C819.283,497.458 818.403,498.513 817.208,498.611L669.115,512.828C667.92,512.93 666.865,512.069 666.759,510.891C666.636,509.7 667.514,508.643 668.693,508.537L816.805,494.328C817.595,494.255 818.335,494.626 818.773,495.219" style="fill:rgb(164,215,212);fill-rule:nonzero;"/>
                    <path d="M775.411,434.558C775.849,435.166 775.956,435.974 775.641,436.704L714.2,572.225C713.71,573.309 712.442,573.781 711.353,573.299C710.262,572.813 709.805,571.534 710.296,570.448L771.701,434.923C772.193,433.838 773.478,433.366 774.568,433.847C774.919,434.008 775.2,434.261 775.411,434.558" style="fill:rgb(164,215,212);fill-rule:nonzero;"/>
                    <path d="M701.506,441.759L787.915,562.882C788.617,563.845 788.405,565.193 787.42,565.888C786.455,566.59 785.1,566.35 784.414,565.387L697.988,444.265C697.302,443.302 697.531,441.954 698.48,441.258C699.465,440.571 700.804,440.796 701.506,441.759" style="fill:rgb(164,215,212);fill-rule:nonzero;"/>
                    <path d="M783.869,499.613L766.918,536.899L726.159,540.841L702.35,507.535L719.317,470.259L760.06,466.308L783.869,499.613Z" style="fill:rgb(99,194,208);fill-rule:nonzero;"/>
                    <path d="M781.406,499.866L759.041,468.57L720.76,472.278L704.846,507.286L727.177,538.588L765.475,534.869L781.406,499.866ZM761.096,464.03L786.346,499.384L768.359,538.923L725.139,543.122L699.889,507.773L717.858,468.224L761.096,464.03Z" style="fill:rgb(164,215,212);fill-rule:nonzero;"/>
                    <path d="M768.29,548.45C718.457,548.45 687.982,563.188 687.982,571.207C687.982,579.226 718.457,593.95 768.29,593.95C818.087,593.95 848.578,579.226 848.578,571.207C848.578,563.188 818.087,548.45 768.29,548.45M768.29,611.475C719.67,611.475 670.45,597.643 670.45,571.207C670.45,544.762 719.67,530.929 768.29,530.929C816.893,530.929 866.109,544.762 866.109,571.207C866.109,597.643 816.893,611.475 768.29,611.475" style="fill:rgb(242,153,18);fill-rule:nonzero;"/>
                    <path d="M768.29,538.422C718.457,538.422 687.982,553.145 687.982,561.165C687.982,569.182 718.457,583.912 768.29,583.912C818.087,583.912 848.578,569.182 848.578,561.165C848.578,553.145 818.087,538.422 768.29,538.422M768.29,601.443C719.67,601.443 670.45,587.605 670.45,561.165C670.45,534.729 719.67,520.891 768.29,520.891C816.893,520.891 866.109,534.729 866.109,561.165C866.109,587.605 816.893,601.443 768.29,601.443" style="fill:rgb(242,153,18);fill-rule:nonzero;"/>
                    <path d="M857.336,571.207C857.336,588.607 817.474,602.708 768.29,602.708C719.089,602.708 679.209,588.607 679.209,571.207C679.209,553.797 719.089,539.687 768.29,539.687C817.474,539.687 857.336,553.797 857.336,571.207" style="fill:rgb(242,153,18);fill-rule:nonzero;"/>
                </g>
            </g>
        </g>
        <g transform="matrix(1,0,0,1,-170.538,-489.85)">
            <g transform="matrix(0.147855,0,0,0.147855,170.041,489.224)">
                <g>
                    <path d="M679.209,561.165C679.209,578.573 719.089,592.676 768.29,592.676C817.474,592.676 857.336,578.573 857.336,561.165C857.336,543.764 817.474,529.654 768.29,529.654C719.089,529.654 679.209,543.764 679.209,561.165Z" style="fill:url(#_Linear10);fill-rule:nonzero;"/>
                </g>
            </g>
        </g>
        <g transform="matrix(1,0,0,1,-170.538,-489.85)">
            <g transform="matrix(0.147855,0,0,0.147855,170.041,489.224)">
                <g>
                    <path d="M941.599,446.898C936.849,446.898 933.247,447.9 932.174,449.505C927.707,456.161 944.835,485.371 986.227,513.091C1011.99,530.34 1039.44,541.488 1056.18,541.488C1060.92,541.488 1064.51,540.495 1065.6,538.879C1070.07,532.213 1052.94,503.004 1011.55,475.284C985.787,458.035 958.34,446.898 941.599,446.898M1056.18,559.019C1035.9,559.019 1005.36,547.001 976.487,527.66C936.077,500.596 902.897,461.719 917.613,439.754C920.778,435.015 927.515,429.366 941.599,429.366C961.874,429.366 992.417,441.375 1021.29,460.727C1061.7,487.77 1094.88,526.656 1080.16,548.63C1077,553.37 1070.25,559.019 1056.18,559.019" style="fill:rgb(242,153,18);fill-rule:nonzero;"/>
                    <path d="M947.173,438.563C942.443,438.563 938.838,439.556 937.765,441.171C933.298,447.836 950.426,477.036 991.818,504.756C1017.56,522.005 1045.03,533.152 1061.77,533.152C1066.5,533.152 1070.1,532.15 1071.19,530.545C1072.51,528.564 1072.32,521.241 1062.17,507.623C1052.1,494.1 1036.1,479.654 1017.14,466.959C991.361,449.701 963.912,438.563 947.173,438.563M1061.77,550.684C1041.5,550.684 1010.95,538.66 982.06,519.313C941.67,492.27 908.471,453.393 923.187,431.415C926.371,426.676 933.089,421.031 947.173,421.031C967.447,421.031 998.008,433.05 1026.88,452.391C1047.45,466.166 1064.97,482.062 1076.22,497.141C1092.96,519.587 1090.64,532.997 1085.75,540.296C1082.59,545.034 1075.84,550.684 1061.77,550.684" style="fill:rgb(242,153,18);fill-rule:nonzero;"/>
                    <path d="M1072.88,543.76C1063.21,558.211 1022.22,547.74 981.339,520.38C940.492,493.001 915.204,459.092 924.895,444.635C934.566,430.175 975.57,440.646 1016.44,468.006C1057.3,495.375 1082.57,529.295 1072.88,543.76" style="fill:rgb(242,153,18);fill-rule:nonzero;"/>
                </g>
            </g>
        </g>
        <g transform="matrix(1,0,0,1,-170.538,-489.85)">
            <g transform="matrix(0.147855,0,0,0.147855,170.041,489.224)">
                <g>
                    <path d="M930.485,436.291C920.777,450.756 946.065,484.666 986.93,512.035C1027.82,539.406 1068.8,549.876 1078.47,535.415C1088.14,520.959 1062.86,487.05 1021.99,459.67C993.6,440.646 965.145,429.791 947.181,429.793C939.3,429.793 933.434,431.884 930.485,436.291Z" style="fill:url(#_Linear11);fill-rule:nonzero;"/>
                </g>
            </g>
        </g>
        <g transform="matrix(1,0,0,1,-170.538,-489.85)">
            <g transform="matrix(0.147855,0,0,0.147855,170.041,489.224)">
                <g>
                    <path d="M721.763,561.228C671.947,561.228 641.473,575.962 641.473,583.98C641.473,591.999 671.947,606.728 721.763,606.728C771.578,606.728 802.051,591.999 802.051,583.98C802.051,575.962 771.578,561.228 721.763,561.228M721.763,624.259C673.161,624.259 623.926,610.421 623.926,583.98C623.926,557.535 673.161,543.707 721.763,543.707C770.383,543.707 819.6,557.535 819.6,583.98C819.6,610.421 770.383,624.259 721.763,624.259" style="fill:rgb(242,153,18);fill-rule:nonzero;"/>
                    <path d="M721.763,551.195C671.947,551.195 641.473,565.923 641.473,573.943C641.473,581.965 671.947,596.695 721.763,596.695C771.578,596.695 802.051,581.965 802.051,573.943C802.051,565.923 771.578,551.195 721.763,551.195M721.763,614.216C673.161,614.216 623.926,600.387 623.926,573.943C623.926,547.502 673.161,533.663 721.763,533.663C770.383,533.663 819.6,547.502 819.6,573.943C819.6,600.387 770.383,614.216 721.763,614.216" style="fill:rgb(242,153,18);fill-rule:nonzero;"/>
                    <path d="M810.825,583.98C810.825,601.39 770.945,615.491 721.762,615.491C672.579,615.491 632.681,601.39 632.681,583.98C632.681,566.576 672.579,552.46 721.762,552.46C770.945,552.46 810.825,566.576 810.825,583.98" style="fill:rgb(242,153,18);fill-rule:nonzero;"/>
                </g>
            </g>
        </g>
        <g transform="matrix(1,0,0,1,-170.538,-489.85)">
            <g transform="matrix(0.147855,0,0,0.147855,170.041,489.224)">
                <g>
                    <path d="M632.681,573.942C632.681,591.346 672.579,605.462 721.763,605.462C770.945,605.462 810.825,591.346 810.825,573.942C810.825,556.542 770.945,542.431 721.763,542.431C672.579,542.431 632.681,556.542 632.681,573.942Z" style="fill:url(#_Linear12);fill-rule:nonzero;"/>
                </g>
            </g>
        </g>
        <g transform="matrix(1,0,0,1,-170.538,-489.85)">
            <g transform="matrix(0.147855,0,0,0.147855,170.041,489.224)">
                <g>
                    <path d="M738.695,583.338C748.489,597.143 745.853,616.259 730.713,626.317C723.117,631.299 713.464,633.051 704.511,631.037C695.298,629.182 688.423,622.658 687.07,614.322C684.94,597.357 683.779,583.64 697.004,574.857C709.7,566.449 728.829,569.441 738.695,583.338" style="fill:rgb(254,254,254);fill-rule:nonzero;"/>
                    <path d="M788.23,548.654C797.48,562.906 794.312,581.469 781.039,590.888C767.693,600.343 748.561,597.195 738.695,583.338C728.829,569.508 731.644,550.508 745.571,540.645C759.531,530.739 778.963,534.403 788.23,548.654" style="fill:rgb(254,254,254);fill-rule:nonzero;"/>
                    <path d="M840.401,518.17C847.593,533.522 842.705,551.213 829.465,559.057C816.118,566.89 797.726,562.809 788.23,548.654C778.786,534.587 782.726,515.203 798.183,506.094C813.692,496.922 833.175,502.731 840.401,518.17" style="fill:rgb(254,254,254);fill-rule:nonzero;"/>
                    <path d="M897.445,498.776C899.416,515.651 891.36,530.666 878.419,535.386C865.265,540.013 848.103,533.347 840.401,518.17C832.718,503.077 839.68,483.901 858.039,477.361C876.555,470.685 895.51,481.818 897.445,498.776" style="fill:rgb(254,254,254);fill-rule:nonzero;"/>
                    <path d="M957.777,498.62C956.001,515.529 942.338,527.974 927.32,527.845C919.758,527.79 912.531,524.53 908.117,519.368C903.213,514.181 898.799,507.228 897.445,498.776C896.091,490.46 898.342,482.135 904.356,476.034C910.827,469.878 918.74,466.292 927.865,466.336C946.257,466.521 959.57,481.731 957.777,498.62" style="fill:rgb(254,254,254);fill-rule:nonzero;"/>
                    <path d="M1017.28,509.028C1012.62,525.402 997.287,535.405 982.463,532.88C967.659,530.271 956.476,515.563 957.777,498.62C959.076,481.678 974.938,469.129 993.031,472.278C1011.14,475.401 1021.92,492.708 1017.28,509.028" style="fill:rgb(254,254,254);fill-rule:nonzero;"/>
                    <path d="M1073.46,530.982C1064.76,545.496 1048.37,552.074 1035.04,547C1021.61,541.847 1013.13,525.557 1017.28,509.028C1021.36,492.596 1039.26,482.811 1057.06,489.564C1074.96,496.411 1082.27,516.326 1073.46,530.982" style="fill:rgb(254,254,254);fill-rule:nonzero;"/>
                    <path d="M1116.21,572.307C1108.28,575.621 1100.26,576.069 1093.63,576.131C1086.95,576.044 1081.71,574.998 1077.45,571.101C1069.3,563.559 1065.49,546.027 1073.46,530.983C1081.25,516.098 1102.04,510.726 1118.83,525.592C1126.97,532.89 1131.26,543.741 1130.4,552.903C1129.7,562.186 1123.93,569.106 1116.21,572.307" style="fill:rgb(254,254,254);fill-rule:nonzero;"/>
                    <path d="M979.406,549.462C929.606,549.462 899.116,564.201 899.116,572.219C899.116,580.233 929.606,594.961 979.406,594.961C1029.24,594.961 1059.71,580.233 1059.71,572.219C1059.71,564.201 1029.24,549.462 979.406,549.462M979.406,612.483C930.802,612.483 881.584,598.654 881.584,572.219C881.584,545.77 930.802,531.941 979.406,531.941C1028.02,531.941 1077.24,545.77 1077.24,572.219C1077.24,598.654 1028.02,612.483 979.406,612.483" style="fill:rgb(242,153,18);fill-rule:nonzero;"/>
                    <path d="M979.406,539.434C929.606,539.434 899.116,554.158 899.116,562.177C899.116,570.196 929.606,584.924 979.406,584.924C1029.24,584.924 1059.71,570.196 1059.71,562.177C1059.71,554.158 1029.24,539.434 979.406,539.434M979.406,602.455C930.802,602.455 881.584,588.613 881.584,562.177C881.584,535.741 930.802,521.903 979.406,521.903C1028.02,521.903 1077.24,535.741 1077.24,562.177C1077.24,588.613 1028.02,602.455 979.406,602.455" style="fill:rgb(242,153,18);fill-rule:nonzero;"/>
                    <path d="M1068.49,572.219C1068.49,589.615 1028.6,603.72 979.406,603.72C930.222,603.72 890.357,589.615 890.357,572.219C890.357,554.81 930.222,540.699 979.406,540.699C1028.6,540.699 1068.49,554.81 1068.49,572.219" style="fill:rgb(242,153,18);fill-rule:nonzero;"/>
                </g>
            </g>
        </g>
        <g transform="matrix(1,0,0,1,-170.538,-489.85)">
            <g transform="matrix(0.147855,0,0,0.147855,170.041,489.224)">
                <g>
                    <path d="M890.358,562.176C890.358,579.586 930.222,593.686 979.406,593.686C1028.6,593.686 1068.49,579.586 1068.49,562.176C1068.49,544.778 1028.6,530.666 979.406,530.666C930.222,530.666 890.358,544.778 890.358,562.176Z" style="fill:url(#_Linear13);fill-rule:nonzero;"/>
                </g>
            </g>
        </g>
        <g transform="matrix(1,0,0,1,-170.538,-489.85)">
            <g transform="matrix(0.147855,0,0,0.147855,170.041,489.224)">
                <g>
                    <path d="M850.565,565.718C800.751,565.718 770.258,580.447 770.258,588.466C770.258,596.484 800.751,611.218 850.565,611.218C900.38,611.218 930.872,596.484 930.872,588.466C930.872,580.447 900.38,565.718 850.565,565.718M850.565,628.74C801.944,628.74 752.728,614.911 752.728,588.466C752.728,562.021 801.944,548.177 850.565,548.177C899.185,548.177 948.385,562.021 948.385,588.466C948.385,614.911 899.185,628.74 850.565,628.74" style="fill:rgb(242,153,18);fill-rule:nonzero;"/>
                    <path d="M850.565,555.681C800.751,555.681 770.258,570.414 770.258,578.433C770.258,586.452 800.751,601.18 850.565,601.18C900.38,601.18 930.872,586.452 930.872,578.433C930.872,570.414 900.38,555.681 850.565,555.681M850.565,618.711C801.944,618.711 752.728,604.873 752.728,578.433C752.728,551.998 801.944,538.16 850.565,538.16C899.185,538.16 948.385,551.998 948.385,578.433C948.385,604.873 899.185,618.711 850.565,618.711" style="fill:rgb(242,153,18);fill-rule:nonzero;"/>
                    <path d="M939.628,588.466C939.628,605.876 899.749,619.976 850.565,619.976C801.383,619.976 761.503,605.876 761.503,588.466C761.503,571.057 801.383,556.955 850.565,556.955C899.749,556.955 939.628,571.057 939.628,588.466" style="fill:rgb(242,153,18);fill-rule:nonzero;"/>
                </g>
            </g>
        </g>
        <g transform="matrix(1,0,0,1,-170.538,-489.85)">
            <g transform="matrix(0.147855,0,0,0.147855,170.041,489.224)">
                <g>
                    <path d="M761.503,578.432C761.503,595.843 801.383,609.943 850.565,609.943C899.749,609.943 939.628,595.843 939.628,578.432C939.628,561.033 899.749,546.922 850.565,546.922C801.383,546.922 761.503,561.033 761.503,578.432Z" style="fill:url(#_Linear14);fill-rule:nonzero;"/>
                </g>
            </g>
        </g>
        <g transform="matrix(1,0,0,1,-170.538,-489.85)">
            <g transform="matrix(0.147855,0,0,0.147855,170.041,489.224)">
                <g>
                    <path d="M843.831,537.42C794.016,537.42 763.525,552.153 763.525,560.163C763.525,568.181 794.016,582.92 843.831,582.92C893.63,582.92 924.121,568.181 924.121,560.163C924.121,552.153 893.63,537.42 843.831,537.42M843.831,600.441C795.211,600.441 745.994,586.613 745.994,560.163C745.994,533.727 795.211,519.888 843.831,519.888C892.434,519.888 941.652,533.727 941.652,560.163C941.652,586.613 892.434,600.441 843.831,600.441" style="fill:rgb(242,153,18);fill-rule:nonzero;"/>
                    <path d="M843.831,527.387C794.016,527.387 763.525,542.115 763.525,550.133C763.525,558.157 794.016,572.886 843.831,572.886C893.63,572.886 924.121,558.157 924.121,550.133C924.121,542.115 893.63,527.387 843.831,527.387M843.831,590.408C795.211,590.408 745.994,576.579 745.994,550.133C745.994,523.694 795.211,509.865 843.831,509.865C892.434,509.865 941.652,523.694 941.652,550.133C941.652,576.579 892.434,590.408 843.831,590.408" style="fill:rgb(242,153,18);fill-rule:nonzero;"/>
                    <path d="M932.894,560.163C932.894,577.572 893.015,591.683 843.831,591.683C794.631,591.683 754.767,577.572 754.767,560.163C754.767,542.763 794.631,528.653 843.831,528.653C893.015,528.653 932.894,542.763 932.894,560.163" style="fill:rgb(242,153,18);fill-rule:nonzero;"/>
                </g>
            </g>
        </g>
        <g transform="matrix(1,0,0,1,-170.538,-489.85)">
            <g transform="matrix(0.147855,0,0,0.147855,170.041,489.224)">
                <g>
                    <path d="M754.766,550.134C754.766,567.539 794.631,581.65 843.831,581.65C893.015,581.65 932.894,567.539 932.894,550.134C932.894,532.735 893.015,518.623 843.831,518.623C794.631,518.623 754.766,532.735 754.766,550.134Z" style="fill:url(#_Linear15);fill-rule:nonzero;"/>
                </g>
            </g>
        </g>
        <g transform="matrix(1,0,0,1,-170.538,-489.85)">
            <g transform="matrix(0.147855,0,0,0.147855,170.041,489.224)">
                <g>
                    <path d="M999.873,399.364C950.075,399.364 919.583,414.102 919.583,422.112C919.583,430.13 950.075,444.864 999.873,444.864C1049.69,444.864 1080.18,430.13 1080.18,422.112C1080.18,414.102 1049.69,399.364 999.873,399.364M999.873,462.385C951.269,462.385 902.053,448.556 902.053,422.112C902.053,395.671 951.269,381.833 999.873,381.833C1048.49,381.833 1097.71,395.671 1097.71,422.112C1097.71,448.556 1048.49,462.385 999.873,462.385" style="fill:rgb(242,153,18);fill-rule:nonzero;"/>
                    <path d="M999.873,389.336C950.075,389.336 919.583,404.06 919.583,412.078C919.583,420.107 950.075,434.836 999.873,434.836C1049.69,434.836 1080.18,420.107 1080.18,412.078C1080.18,404.06 1049.69,389.336 999.873,389.336M999.873,452.357C951.269,452.357 902.053,438.524 902.053,412.078C902.053,385.643 951.269,371.81 999.873,371.81C1048.49,371.81 1097.71,385.643 1097.71,412.078C1097.71,438.524 1048.49,452.357 999.873,452.357" style="fill:rgb(242,153,18);fill-rule:nonzero;"/>
                    <path d="M1088.95,422.112C1088.95,439.521 1049.07,453.631 999.873,453.631C950.689,453.631 910.827,439.521 910.827,422.112C910.827,404.712 950.689,390.601 999.873,390.601C1049.07,390.601 1088.95,404.712 1088.95,422.112" style="fill:rgb(242,153,18);fill-rule:nonzero;"/>
                </g>
            </g>
        </g>
        <g transform="matrix(1,0,0,1,-170.538,-489.85)">
            <g transform="matrix(0.147855,0,0,0.147855,170.041,489.224)">
                <g>
                    <path d="M910.827,412.078C910.827,429.489 950.689,443.599 999.873,443.599C1049.07,443.599 1088.95,429.489 1088.95,412.078C1088.95,394.678 1049.07,380.568 999.873,380.568C950.689,380.568 910.827,394.678 910.827,412.078Z" style="fill:url(#_Linear16);fill-rule:nonzero;"/>
                </g>
            </g>
        </g>
        <g transform="matrix(1,0,0,1,-170.538,-489.85)">
            <g transform="matrix(0.147855,0,0,0.147855,170.041,489.224)">
                <g>
                    <path d="M906.642,613.973C856.809,613.973 826.334,628.706 826.334,636.725C826.334,644.744 856.809,659.473 906.642,659.473C956.439,659.473 986.93,644.744 986.93,636.725C986.93,628.706 956.439,613.973 906.642,613.973M906.642,677.003C858.022,677.003 808.803,663.164 808.803,636.725C808.803,610.28 858.022,596.446 906.642,596.446C955.245,596.446 1004.46,610.28 1004.46,636.725C1004.46,663.164 955.245,677.003 906.642,677.003" style="fill:rgb(242,153,18);fill-rule:nonzero;"/>
                    <path d="M906.642,603.939C856.809,603.939 826.334,618.667 826.334,626.687C826.334,634.71 856.809,649.439 906.642,649.439C956.439,649.439 986.93,634.71 986.93,626.687C986.93,618.667 956.439,603.939 906.642,603.939M906.642,666.96C858.022,666.96 808.803,653.132 808.803,626.687C808.803,600.247 858.022,586.409 906.642,586.409C955.245,586.409 1004.46,600.247 1004.46,626.687C1004.46,653.132 955.245,666.96 906.642,666.96" style="fill:rgb(242,153,18);fill-rule:nonzero;"/>
                    <path d="M995.685,636.725C995.685,654.134 955.805,668.236 906.641,668.236C857.442,668.236 817.562,654.134 817.562,636.725C817.562,619.316 857.442,605.204 906.641,605.204C955.805,605.204 995.685,619.316 995.685,636.725" style="fill:rgb(242,153,18);fill-rule:nonzero;"/>
                </g>
            </g>
        </g>
        <g transform="matrix(1,0,0,1,-170.538,-489.85)">
            <g transform="matrix(0.147855,0,0,0.147855,170.041,489.224)">
                <g>
                    <path d="M817.561,626.687C817.561,644.092 857.441,658.201 906.641,658.201C955.806,658.201 995.686,644.092 995.686,626.687C995.686,609.287 955.806,595.171 906.641,595.171C857.441,595.171 817.561,609.287 817.561,626.687Z" style="fill:url(#_Linear17);fill-rule:nonzero;"/>
                </g>
            </g>
        </g>
        <g transform="matrix(1,0,0,1,-170.538,-489.85)">
            <g transform="matrix(0.147855,0,0,0.147855,170.041,489.224)">
                <g>
                    <path d="M657.44,590.252C607.642,590.252 577.15,604.976 577.15,612.994C577.15,621.014 607.642,635.751 657.44,635.751C707.273,635.751 737.746,621.014 737.746,612.994C737.746,604.976 707.273,590.252 657.44,590.252M657.44,653.273C608.837,653.273 559.602,639.44 559.602,612.994C559.602,586.549 608.837,572.712 657.44,572.712C706.077,572.712 755.277,586.549 755.277,612.994C755.277,639.44 706.077,653.273 657.44,653.273" style="fill:rgb(242,153,18);fill-rule:nonzero;"/>
                    <path d="M657.44,580.209C607.642,580.209 577.15,594.947 577.15,602.962C577.15,610.98 607.642,625.709 657.44,625.709C707.273,625.709 737.746,610.98 737.746,602.962C737.746,594.947 707.273,580.209 657.44,580.209M657.44,643.24C608.837,643.24 559.602,629.401 559.602,602.962C559.602,576.525 608.837,562.688 657.44,562.688C706.077,562.688 755.277,576.525 755.277,602.962C755.277,629.401 706.077,643.24 657.44,643.24" style="fill:rgb(242,153,18);fill-rule:nonzero;"/>
                    <path d="M746.521,612.994C746.521,630.404 706.64,644.505 657.44,644.505C608.274,644.505 568.377,630.404 568.377,612.994C568.377,595.584 608.274,581.484 657.44,581.484C706.64,581.484 746.521,595.584 746.521,612.994" style="fill:rgb(242,153,18);fill-rule:nonzero;"/>
                </g>
            </g>
        </g>
        <g transform="matrix(1,0,0,1,-170.538,-489.85)">
            <g transform="matrix(0.147855,0,0,0.147855,170.041,489.224)">
                <g>
                    <path d="M568.377,602.962C568.377,620.37 608.273,634.477 657.44,634.477C706.64,634.477 746.521,620.37 746.521,602.962C746.521,585.566 706.64,571.451 657.44,571.451C608.273,571.451 568.377,585.566 568.377,602.962Z" style="fill:url(#_Linear18);fill-rule:nonzero;"/>
                </g>
            </g>
        </g>
        <g transform="matrix(1,0,0,1,-170.538,-489.85)">
            <g transform="matrix(0.147855,0,0,0.147855,170.041,489.224)">
                <g>
                    <path d="M625.964,541.691C576.131,541.691 545.64,556.425 545.64,564.434C545.64,572.453 576.131,587.191 625.964,587.191C675.762,587.191 706.253,572.453 706.253,564.434C706.253,556.425 675.762,541.691 625.964,541.691M625.964,604.712C577.325,604.712 528.126,590.884 528.126,564.434C528.126,537.998 577.325,524.16 625.964,524.16C674.567,524.16 723.767,537.998 723.767,564.434C723.767,590.884 674.567,604.712 625.964,604.712" style="fill:rgb(242,153,18);fill-rule:nonzero;"/>
                    <path d="M625.964,531.659C576.131,531.659 545.64,546.387 545.64,554.407C545.64,562.435 576.131,577.159 625.964,577.159C675.762,577.159 706.253,562.435 706.253,554.407C706.253,546.387 675.762,531.659 625.964,531.659M625.964,594.68C577.325,594.68 528.126,580.852 528.126,554.407C528.126,527.966 577.325,514.138 625.964,514.138C674.567,514.138 723.767,527.966 723.767,554.407C723.767,580.852 674.567,594.68 625.964,594.68" style="fill:rgb(242,153,18);fill-rule:nonzero;"/>
                    <path d="M715.011,564.434C715.011,581.844 675.13,595.954 625.964,595.954C576.764,595.954 536.885,581.844 536.885,564.434C536.885,547.039 576.764,532.924 625.964,532.924C675.13,532.924 715.011,547.039 715.011,564.434" style="fill:rgb(242,153,18);fill-rule:nonzero;"/>
                </g>
            </g>
        </g>
        <g transform="matrix(1,0,0,1,-170.538,-489.85)">
            <g transform="matrix(0.147855,0,0,0.147855,170.041,489.224)">
                <g>
                    <path d="M536.885,554.407C536.885,571.816 576.764,585.926 625.964,585.926C675.129,585.926 715.011,571.816 715.011,554.407C715.011,537.005 675.129,522.896 625.964,522.896C576.764,522.896 536.885,537.005 536.885,554.407Z" style="fill:url(#_Linear19);fill-rule:nonzero;"/>
                </g>
            </g>
        </g>
        <g transform="matrix(1,0,0,1,-170.538,-489.85)">
            <g transform="matrix(0.147855,0,0,0.147855,170.041,489.224)">
                <g>
                    <path d="M412.107,546.854C362.309,546.854 331.817,561.578 331.817,569.596C331.817,577.615 362.309,592.349 412.107,592.349C461.94,592.349 492.413,577.615 492.413,569.596C492.413,561.578 461.94,546.854 412.107,546.854M412.107,609.875C363.503,609.875 314.27,596.042 314.27,569.596C314.27,543.161 363.503,529.323 412.107,529.323C460.742,529.323 509.945,543.161 509.945,569.596C509.945,596.042 460.742,609.875 412.107,609.875" style="fill:rgb(242,153,18);fill-rule:nonzero;"/>
                    <path d="M412.107,536.821C362.309,536.821 331.817,551.545 331.817,559.564C331.817,567.583 362.309,582.311 412.107,582.311C461.94,582.311 492.413,567.583 492.413,559.564C492.413,551.545 461.94,536.821 412.107,536.821M412.107,599.842C363.503,599.842 314.27,586.004 314.27,559.564C314.27,533.128 363.503,519.29 412.107,519.29C460.742,519.29 509.945,533.128 509.945,559.564C509.945,586.004 460.742,599.842 412.107,599.842" style="fill:rgb(242,153,18);fill-rule:nonzero;"/>
                    <path d="M501.186,569.596C501.186,587.006 461.306,601.117 412.107,601.117C362.941,601.117 323.042,587.006 323.042,569.596C323.042,552.187 362.941,538.086 412.107,538.086C461.306,538.086 501.186,552.187 501.186,569.596" style="fill:rgb(242,153,18);fill-rule:nonzero;"/>
                </g>
            </g>
        </g>
        <g transform="matrix(1,0,0,1,-170.538,-489.85)">
            <g transform="matrix(0.147855,0,0,0.147855,170.041,489.224)">
                <g>
                    <path d="M323.042,559.564C323.042,576.973 362.942,591.075 412.107,591.075C461.306,591.075 501.186,576.973 501.186,559.564C501.186,542.164 461.306,528.053 412.107,528.053C362.942,528.053 323.042,542.164 323.042,559.564Z" style="fill:url(#_Linear20);fill-rule:nonzero;"/>
                </g>
            </g>
        </g>
        <g transform="matrix(1,0,0,1,-170.538,-489.85)">
            <g transform="matrix(0.147855,0,0,0.147855,170.041,489.224)">
                <g>
                    <path d="M938.152,598.786C938.152,631.732 911.441,658.43 878.506,658.43C845.553,658.43 818.86,631.732 818.86,598.786C818.86,565.846 845.553,539.142 878.506,539.142C911.441,539.142 938.152,565.846 938.152,598.786" style="fill:rgb(233,91,62);fill-rule:nonzero;"/>
                    <path d="M930.273,586.408C930.273,599.463 919.687,610.04 906.641,610.04C893.576,610.04 883.007,599.463 883.007,586.408C883.007,573.353 893.576,562.776 906.641,562.776C919.687,562.776 930.273,573.353 930.273,586.408" style="fill:rgb(255,251,219);fill-rule:nonzero;"/>
                    <path d="M698.957,671.777C696.159,675.587 694.823,679.086 695.476,680.905C698.163,688.447 731.857,691.999 778.735,675.144C807.889,664.658 833.176,649.181 843.111,635.703C845.906,631.896 847.26,628.408 846.61,626.569C843.885,619.028 810.209,615.48 763.331,632.33C734.157,642.826 708.89,658.309 698.957,671.777M857.212,646.116C845.168,662.439 817.384,679.875 784.659,691.638C738.907,708.08 687.93,711.711 678.98,686.841C677.047,681.474 676.501,672.701 684.853,661.37C696.898,645.049 724.681,627.595 757.407,615.845C803.143,599.384 854.135,595.764 863.103,620.642C865.02,626.014 865.564,634.788 857.212,646.116" style="fill:rgb(242,153,18);fill-rule:nonzero;"/>
                    <path d="M695.563,662.338C692.749,666.143 691.414,669.631 692.078,671.461C694.789,679.012 728.461,682.56 775.325,665.715C804.513,655.214 829.783,639.732 839.714,626.273C842.529,622.464 843.865,618.965 843.2,617.136C842.388,614.892 836.391,610.707 819.406,610.79C802.544,610.878 781.406,615.174 759.956,622.896C730.768,633.383 705.513,648.864 695.563,662.338M853.82,636.671C841.791,652.991 813.971,670.434 781.268,682.199C735.513,698.646 684.536,702.281 675.586,677.397C673.653,672.026 673.091,663.257 681.46,651.925C693.489,635.61 721.305,618.166 754.012,606.401C777.309,598.023 800.503,593.352 819.318,593.26C847.312,593.118 856.739,602.937 859.693,611.199C861.625,616.575 862.19,625.349 853.82,636.671" style="fill:rgb(242,153,18);fill-rule:nonzero;"/>
                    <path d="M854.838,623.606C860.73,639.984 827.97,666.751 781.69,683.402C735.408,700.027 693.101,700.247 687.228,683.877C681.335,667.495 714.096,640.723 760.378,624.084C806.656,607.447 848.965,607.237 854.838,623.606" style="fill:rgb(242,153,18);fill-rule:nonzero;"/>
                </g>
            </g>
        </g>
        <g transform="matrix(1,0,0,1,-170.538,-489.85)">
            <g transform="matrix(0.147855,0,0,0.147855,170.041,489.224)">
                <g>
                    <path d="M756.966,614.648C710.685,631.284 677.943,658.056 683.834,674.424C689.724,690.812 732.014,690.593 778.311,673.952C824.595,657.306 857.336,630.545 851.462,614.162C848.54,606.065 836.717,602.027 819.907,602.027C802.736,602.028 780.362,606.242 756.966,614.648Z" style="fill:url(#_Linear21);fill-rule:nonzero;"/>
                </g>
            </g>
        </g>
        <g transform="matrix(1,0,0,1,-170.538,-489.85)">
            <g transform="matrix(0.147855,0,0,0.147855,170.041,489.224)">
                <g>
                    <path d="M505.091,654.66L442.598,608.678L451.179,531.561L522.252,500.441L584.745,546.431L576.165,623.539L505.091,654.66Z" style="fill:rgb(238,136,156);fill-rule:nonzero;"/>
                    <path d="M505.512,650.962L573.178,621.329L581.335,547.924L521.849,504.149L454.203,533.78L446.026,607.185L505.512,650.962ZM579.172,625.752L504.687,658.372L439.184,610.172L448.189,529.348L522.676,496.728L588.158,544.937L579.172,625.752Z" style="fill:rgb(233,102,139);fill-rule:nonzero;"/>
                    <path d="M506.269,653.307C505.936,653.457 505.549,653.512 505.162,653.472C503.965,653.342 503.121,652.271 503.262,651.093L519.879,503.228C520.003,502.041 521.093,501.18 522.253,501.326C523.45,501.457 524.294,502.533 524.153,503.701L507.537,651.565C507.446,652.359 506.938,653.005 506.269,653.307" style="fill:rgb(233,102,139);fill-rule:nonzero;"/>
                    <path d="M506.269,653.307C505.936,653.457 505.549,653.512 505.162,653.472C503.965,653.342 503.121,652.271 503.262,651.093L519.879,503.228C520.003,502.041 521.093,501.18 522.253,501.326C523.45,501.457 524.294,502.533 524.153,503.701L507.537,651.565C507.446,652.359 506.938,653.005 506.269,653.307" style="fill:rgb(233,102,139);fill-rule:nonzero;"/>
                    <path d="M574.547,623.388C573.88,623.685 573.07,623.636 572.403,623.159L452.444,535.123C451.495,534.422 451.283,533.075 451.986,532.107C452.689,531.148 454.044,530.939 455.011,531.645L574.97,619.675C575.919,620.381 576.131,621.734 575.427,622.693C575.199,623.009 574.9,623.238 574.547,623.388" style="fill:rgb(233,102,139);fill-rule:nonzero;"/>
                    <path d="M582.741,549.57L446.413,609.179C445.323,609.652 444.038,609.16 443.581,608.07C443.09,606.97 443.581,605.705 444.671,605.234L581.019,545.624C582.109,545.147 583.376,545.638 583.851,546.728C584.325,547.818 583.834,549.088 582.741,549.57" style="fill:rgb(233,102,139);fill-rule:nonzero;"/>
                    <path d="M509.151,618.244L476.164,593.979L480.702,553.277L518.209,536.855L551.196,561.13L546.659,601.822L509.151,618.244Z" style="fill:rgb(238,136,156);fill-rule:nonzero;"/>
                    <path d="M509.417,615.773L544.654,600.343L548.91,562.123L517.927,539.327L482.689,554.756L478.451,592.986L509.417,615.773ZM548.664,603.296L508.872,620.72L473.897,594.981L478.68,551.802L518.489,534.378L553.464,560.128L548.664,603.296Z" style="fill:rgb(233,102,139);fill-rule:nonzero;"/>
                    <path d="M186.398,581.785L240.381,989.004L855.648,1102.75L855.648,674.433L186.398,581.785Z" style="fill:rgb(229,35,41);fill-rule:nonzero;"/>
                    <path d="M256.523,973.672L837.642,1081.11L837.642,690.12L207.356,602.869L256.523,973.672ZM855.648,1120.75C854.558,1120.75 853.468,1120.66 852.377,1120.46L237.108,1006.71C229.442,1005.29 223.552,999.095 222.53,991.368L168.567,584.151C167.828,578.573 169.728,572.974 173.7,569.018C177.71,565.052 183.267,563.204 188.877,563.943L858.109,656.597C867.024,657.832 873.654,665.443 873.654,674.434L873.654,1102.75C873.654,1108.09 871.279,1113.17 867.165,1116.59C863.912,1119.3 859.832,1120.75 855.648,1120.75" style="fill:rgb(252,208,0);fill-rule:nonzero;"/>
                    <path d="M1228.05,446.255L1206.47,857.44L855.649,1102.75L855.649,674.434L1228.05,446.255Z" style="fill:rgb(229,35,41);fill-rule:nonzero;"/>
                    <path d="M873.654,684.52L873.654,1068.18L1188.93,847.717L1208.28,479.489L873.654,684.52ZM855.648,1120.75C852.799,1120.75 849.95,1120.08 847.33,1118.71C841.37,1115.62 837.642,1109.45 837.642,1102.75L837.642,674.433C837.642,668.167 840.894,662.352 846.24,659.082L1218.65,430.903C1224.35,427.41 1231.51,427.361 1237.26,430.777C1243.01,434.198 1246.38,440.523 1246.03,447.194L1224.46,858.382C1224.16,863.919 1221.33,869.019 1216.79,872.193L865.969,1117.5C862.892,1119.66 859.27,1120.75 855.648,1120.75" style="fill:rgb(252,208,0);fill-rule:nonzero;"/>
                    <path d="M282.09,618.692C265.121,619.713 250.543,606.196 250.069,588.524C249.577,570.851 263.416,556.595 280.402,556.673C297.422,556.751 311.105,570.274 311.56,586.865C312,603.447 299.04,617.671 282.09,618.692" style="fill:rgb(254,254,254);fill-rule:nonzero;"/>
                    <path d="M287.401,680.501C270.555,682.627 255.08,669.967 253.603,652.261C252.09,634.544 265.137,619.539 282.089,618.692C299.076,617.84 313.459,630.58 314.884,647.03C316.274,663.472 304.262,678.375 287.401,680.501" style="fill:rgb(254,254,254);fill-rule:nonzero;"/>
                    <path d="M297.212,741.756C280.613,745.343 264.065,733.835 261.269,716.065C258.44,698.316 270.519,682.409 287.401,680.501C304.299,678.594 319.437,690.306 322.022,706.411C324.538,722.493 313.828,738.16 297.212,741.756" style="fill:rgb(254,254,254);fill-rule:nonzero;"/>
                    <path d="M313.284,801.639C297.317,807.385 279.275,797.664 274.582,779.86C269.85,762.1 280.576,745.041 297.212,741.756C313.916,738.448 329.9,748.686 334.034,764.051C338.043,779.403 329.302,795.877 313.284,801.639" style="fill:rgb(254,254,254);fill-rule:nonzero;"/>
                    <path d="M338.992,857.979C324.747,867.219 304.455,860.781 296.577,843.128C288.736,825.578 297.159,806.922 313.284,801.638C329.426,796.335 346.483,804.135 352.672,817.896C358.737,831.583 353.305,848.734 338.992,857.979" style="fill:rgb(254,254,254);fill-rule:nonzero;"/>
                    <path d="M380.103,903.883C375.269,910.802 367.688,915.065 359.02,915.108C350.422,915.22 340.89,911.089 334.102,903.318C320.265,887.359 324.328,866.398 338.993,857.98C353.728,849.459 371.593,852.851 380.349,862.753C388.791,872.659 389.265,889.494 380.103,903.883" style="fill:rgb(254,254,254);fill-rule:nonzero;"/>
                    <path d="M437.954,923.769C437.603,932.249 433.558,939.807 426.174,944.526C418.894,949.29 408.168,950.759 397.617,947.144C387.048,943.568 379.453,935.753 376.621,927.521C373.668,919.248 375.144,910.792 380.102,903.883C390.6,890.41 406.83,885.524 417.539,888.959C428.142,892.808 438.044,906.632 437.954,923.769" style="fill:rgb(254,254,254);fill-rule:nonzero;"/>
                    <path d="M496.299,906.764C501.364,913.595 502.982,922.072 499.817,930.469C496.79,938.819 488.546,946.818 477.204,950.059C465.879,953.363 454.731,950.969 447.766,945.553C440.628,940.244 437.567,932.158 437.954,923.769C438.341,915.204 442.229,907.839 446.325,902.077C450.564,896.413 454.977,892.468 460.147,890.965C465.317,889.481 471.083,890.517 477.641,893.047C484.096,895.669 491.27,899.951 496.299,906.764" style="fill:rgb(254,254,254);fill-rule:nonzero;"/>
                    <path d="M535.441,859.278C550.405,866.908 555.751,887.65 542.491,904.398C536.003,912.572 526.437,917.234 517.715,917.447C508.96,917.763 501.206,913.603 496.298,906.763C491.304,899.81 489.441,891.859 489.053,884.711C488.808,877.529 490.284,871.223 494.452,865.978C502.628,855.892 520.231,851.425 535.441,859.278" style="fill:rgb(254,254,254);fill-rule:nonzero;"/>
                    <path d="M558.476,801.78C574.759,806.392 584.042,824.61 577.045,842.399C570.063,860.315 550.141,867.764 535.441,859.278C520.671,850.759 514.375,833.893 519.827,819.827C525.418,805.736 542.088,797.108 558.476,801.78" style="fill:rgb(254,254,254);fill-rule:nonzero;"/>
                    <path d="M572.333,741.323C589.072,744.057 600.31,760.718 596.283,778.551C592.239,796.432 574.725,806.84 558.477,801.78C542.263,796.724 532.805,780.526 536.303,764.956C539.838,749.361 555.522,738.579 572.333,741.323" style="fill:rgb(254,254,254);fill-rule:nonzero;"/>
                    <path d="M580.191,679.796C597.126,681.178 609.663,696.714 607.396,714.518C605.146,732.337 589.003,744.35 572.333,741.323C555.556,738.302 544.338,722.955 546.379,706.762C548.452,690.568 563.241,678.414 580.191,679.796" style="fill:rgb(254,254,254);fill-rule:nonzero;"/>
                    <path d="M583.252,617.84C600.255,617.681 614.006,632.584 613.057,650.407C612.159,668.278 597.09,681.397 580.191,679.796C563.258,678.195 550.81,663.656 551.62,647.284C552.498,630.876 566.265,617.997 583.252,617.84" style="fill:rgb(254,254,254);fill-rule:nonzero;"/>
                    <path d="M455.188,619.65C438.482,622.648 422.235,609.617 420.81,590.616C419.35,571.635 433.312,556.444 450.264,556.673C467.302,556.892 480.896,570.044 482.145,585.907C483.322,601.75 471.946,616.653 455.188,619.65" style="fill:rgb(254,254,254);fill-rule:nonzero;"/>
                    <path d="M471.769,680.526C456.242,687.377 437.11,677.617 432.064,658.517C426.982,639.503 438.449,622.088 455.188,619.65C472.068,617.169 487.473,627.863 491.482,642.607C495.333,657.306 487.366,673.684 471.769,680.526" style="fill:rgb(254,254,254);fill-rule:nonzero;"/>
                    <path d="M504.967,733.932C493.063,746.086 470.766,742.934 459.689,724.814C448.787,706.796 455.962,686.515 471.768,680.527C487.684,674.453 504.862,680.852 512.158,692.705C519.282,704.504 516.907,721.831 504.967,733.932" style="fill:rgb(254,254,254);fill-rule:nonzero;"/>
                    <path d="M557.245,768.42C552.253,784.565 530.853,792.272 512.091,780.002C493.433,767.55 492.098,744.928 504.968,733.932C517.84,722.799 535.371,721.787 545.974,728.672C556.437,735.713 562.38,752.164 557.245,768.42" style="fill:rgb(254,254,254);fill-rule:nonzero;"/>
                    <path d="M619.44,777.51C620.477,794.356 604.546,809.204 583.655,806.339C562.521,803.458 550.773,784.112 557.244,768.42C563.682,752.642 578.556,743.674 592.148,745.421C605.919,747.411 618.472,760.465 619.44,777.51" style="fill:rgb(254,254,254);fill-rule:nonzero;"/>
                    <path d="M679.56,760.324C684.027,767.506 684.908,776.147 681.248,784.238C677.697,792.271 669.502,799.527 658.883,802.47C636.92,808.47 619.371,794.296 619.441,777.51C619.388,760.401 630.572,746.679 642.387,743.215C648.613,741.473 655.012,742.501 661.678,745.386C668.237,748.32 675.06,753.088 679.56,760.324" style="fill:rgb(254,254,254);fill-rule:nonzero;"/>
                    <path d="M722.606,714.888C737.412,722.825 741.631,744.754 726.387,761.248C719.002,769.258 708.856,773.213 700.098,772.702C691.237,772.245 683.922,767.55 679.56,760.325C675.129,753.016 673.969,744.788 674.373,737.621C674.846,730.38 676.921,724.152 681.39,719.316C690.077,710.217 707.588,706.718 722.606,714.888" style="fill:rgb(254,254,254);fill-rule:nonzero;"/>
                    <path d="M745.254,656.096C761.782,659.653 771.982,678.171 764.844,697.196C757.703,716.372 736.92,723.988 722.606,714.888C708.187,705.779 702.279,689.09 707.309,675.456C712.513,661.764 728.584,652.46 745.254,656.096" style="fill:rgb(254,254,254);fill-rule:nonzero;"/>
                    <path d="M753.132,593.478C770.171,593.161 783.869,609.651 781.372,628.867C778.947,648.226 761.662,660.347 745.254,656.095C728.762,651.836 718.457,636.441 720.357,621.11C722.379,605.671 736.163,593.774 753.132,593.478" style="fill:rgb(254,254,254);fill-rule:nonzero;"/>
                    <path d="M913.64,1048.75C863.825,1048.75 833.351,1063.48 833.351,1071.5C833.351,1079.52 863.825,1094.25 913.64,1094.25C963.455,1094.25 993.93,1079.52 993.93,1071.5C993.93,1063.48 963.455,1048.75 913.64,1048.75M913.64,1111.78C865.036,1111.78 815.802,1097.94 815.802,1071.5C815.802,1045.05 865.036,1031.22 913.64,1031.22C962.259,1031.22 1011.48,1045.05 1011.48,1071.5C1011.48,1097.94 962.259,1111.78 913.64,1111.78" style="fill:rgb(242,153,18);fill-rule:nonzero;"/>
                    <path d="M913.64,1038.72C863.825,1038.72 833.351,1053.44 833.351,1061.46C833.351,1069.49 863.825,1084.22 913.64,1084.22C963.455,1084.22 993.93,1069.49 993.93,1061.46C993.93,1053.44 963.455,1038.72 913.64,1038.72M913.64,1101.74C865.036,1101.74 815.802,1087.9 815.802,1061.46C815.802,1035.02 865.036,1021.19 913.64,1021.19C962.259,1021.19 1011.48,1035.02 1011.48,1061.46C1011.48,1087.9 962.259,1101.74 913.64,1101.74" style="fill:rgb(242,153,18);fill-rule:nonzero;"/>
                    <path d="M1002.7,1071.5C1002.7,1088.91 962.823,1103.01 913.64,1103.01C864.457,1103.01 824.558,1088.91 824.558,1071.5C824.558,1054.09 864.457,1039.98 913.64,1039.98C962.823,1039.98 1002.7,1054.09 1002.7,1071.5" style="fill:rgb(242,153,18);fill-rule:nonzero;"/>
                </g>
            </g>
        </g>
        <g transform="matrix(1,0,0,1,-170.538,-489.85)">
            <g transform="matrix(0.147855,0,0,0.147855,170.041,489.224)">
                <g>
                    <path d="M824.559,1061.46C824.559,1078.87 864.457,1092.98 913.64,1092.98C962.823,1092.98 1002.7,1078.87 1002.7,1061.46C1002.7,1044.06 962.823,1029.95 913.64,1029.95C864.457,1029.95 824.559,1044.06 824.559,1061.46Z" style="fill:url(#_Linear22);fill-rule:nonzero;"/>
                </g>
            </g>
        </g>
        <g transform="matrix(1,0,0,1,-170.538,-489.85)">
            <g transform="matrix(0.147855,0,0,0.147855,170.041,489.224)">
                <g>
                    <path d="M1026,1001.27C977.68,989.12 944.535,995.966 942.584,1003.75C940.613,1011.52 966.604,1033.25 1014.91,1045.4C1063.21,1057.55 1096.37,1050.7 1098.33,1042.93C1100.28,1035.15 1074.32,1013.42 1026,1001.27M1010.63,1062.4C963.472,1050.54 919.126,1025.11 925.561,999.464C932.032,973.823 983.133,972.421 1030.27,984.274C1077.42,996.138 1121.77,1021.56 1115.33,1047.2C1108.88,1072.85 1057.78,1074.26 1010.63,1062.4" style="fill:rgb(242,153,18);fill-rule:nonzero;"/>
                    <path d="M1028.45,991.544C980.142,979.384 946.98,986.234 945.026,994.005C943.074,1001.8 969.029,1023.51 1017.35,1035.67C1065.67,1047.82 1098.82,1040.97 1100.77,1033.18C1102.74,1025.41 1076.75,1003.7 1028.45,991.544M1013.08,1052.66C965.934,1040.8 921.571,1015.38 928.023,989.734C934.461,964.097 985.593,962.68 1032.72,974.543C1079.88,986.4 1124.23,1011.83 1117.77,1037.47C1111.32,1063.11 1060.22,1064.52 1013.08,1052.66" style="fill:rgb(242,153,18);fill-rule:nonzero;"/>
                    <path d="M1106.82,1045.06C1102.58,1061.94 1060.46,1065.89 1012.76,1053.9C965.056,1041.9 929.816,1018.5 934.071,1001.61C938.329,984.72 980.441,980.775 1028.15,992.769C1075.84,1004.77 1111.07,1028.18 1106.82,1045.06" style="fill:rgb(242,153,18);fill-rule:nonzero;"/>
                </g>
            </g>
        </g>
        <g transform="matrix(1,0,0,1,-170.538,-489.85)">
            <g transform="matrix(0.147855,0,0,0.147855,170.041,489.224)">
                <g>
                    <path d="M936.515,991.869C932.279,1008.75 967.518,1032.16 1015.2,1044.17C1062.91,1056.16 1105.02,1052.21 1109.28,1035.33C1113.52,1018.45 1078.3,995.037 1030.59,983.044C1011.96,978.357 994.178,976.104 979.17,976.105C955.757,976.105 939.098,981.589 936.515,991.869Z" style="fill:url(#_Linear23);fill-rule:nonzero;"/>
                </g>
            </g>
        </g>
        <g transform="matrix(1,0,0,1,-170.538,-489.85)">
            <g transform="matrix(0.147855,0,0,0.147855,170.041,489.224)">
                <g>
                    <path d="M695.386,1063.31C644.252,1063.31 612.952,1078.42 612.952,1086.66C612.952,1094.9 644.252,1110 695.386,1110C746.486,1110 777.784,1094.9 777.784,1086.66C777.784,1078.42 746.486,1063.31 695.386,1063.31M695.386,1127.99C645.482,1127.99 594.981,1113.8 594.981,1086.66C594.981,1059.53 645.482,1045.32 695.386,1045.32C745.254,1045.32 795.756,1059.53 795.756,1086.66C795.756,1113.8 745.254,1127.99 695.386,1127.99" style="fill:rgb(242,153,18);fill-rule:nonzero;"/>
                    <path d="M695.386,1053.02C644.252,1053.02 612.952,1068.14 612.952,1076.37C612.952,1084.59 644.252,1099.71 695.386,1099.71C746.486,1099.71 777.784,1084.59 777.784,1076.37C777.784,1068.14 746.486,1053.02 695.386,1053.02M695.386,1117.69C645.482,1117.69 594.981,1103.5 594.981,1076.37C594.981,1049.24 645.482,1035.03 695.386,1035.03C745.254,1035.03 795.756,1049.24 795.756,1076.37C795.756,1103.5 745.254,1117.69 695.386,1117.69" style="fill:rgb(242,153,18);fill-rule:nonzero;"/>
                    <path d="M786.754,1086.66C786.754,1104.53 745.853,1119.01 695.386,1119.01C644.884,1119.01 603.985,1104.53 603.985,1086.66C603.985,1068.8 644.884,1054.32 695.386,1054.32C745.853,1054.32 786.754,1068.8 786.754,1086.66" style="fill:rgb(242,153,18);fill-rule:nonzero;"/>
                </g>
            </g>
        </g>
        <g transform="matrix(1,0,0,1,-170.538,-489.85)">
            <g transform="matrix(0.147855,0,0,0.147855,170.041,489.224)">
                <g>
                    <path d="M603.985,1076.37C603.985,1094.23 644.884,1108.71 695.385,1108.71C745.853,1108.71 786.754,1094.23 786.754,1076.37C786.754,1058.51 745.853,1044.03 695.385,1044.03C644.884,1044.03 603.985,1058.51 603.985,1076.37Z" style="fill:url(#_Linear24);fill-rule:nonzero;"/>
                </g>
            </g>
        </g>
        <g transform="matrix(1,0,0,1,-170.538,-489.85)">
            <g transform="matrix(0.147855,0,0,0.147855,170.041,489.224)">
                <g>
                    <path d="M688.459,1034.27C637.343,1034.27 606.059,1049.4 606.059,1057.62C606.059,1065.85 637.343,1080.96 688.459,1080.96C739.576,1080.96 770.859,1065.85 770.859,1057.62C770.859,1049.4 739.576,1034.27 688.459,1034.27M688.459,1098.95C638.554,1098.95 588.069,1084.75 588.069,1057.62C588.069,1030.48 638.554,1016.29 688.459,1016.29C738.345,1016.29 788.846,1030.48 788.846,1057.62C788.846,1084.75 738.345,1098.95 688.459,1098.95" style="fill:rgb(242,153,18);fill-rule:nonzero;"/>
                    <path d="M688.459,1023.98C637.343,1023.98 606.059,1039.09 606.059,1047.33C606.059,1055.56 637.343,1070.67 688.459,1070.67C739.576,1070.67 770.859,1055.56 770.859,1047.33C770.859,1039.09 739.576,1023.98 688.459,1023.98M688.459,1088.66C638.554,1088.66 588.069,1074.47 588.069,1047.33C588.069,1020.19 638.554,1005.99 688.459,1005.99C738.345,1005.99 788.846,1020.19 788.846,1047.33C788.846,1074.47 738.345,1088.66 688.459,1088.66" style="fill:rgb(242,153,18);fill-rule:nonzero;"/>
                    <path d="M779.859,1057.62C779.859,1075.48 738.923,1089.95 688.458,1089.95C637.991,1089.95 597.056,1075.48 597.056,1057.62C597.056,1039.76 637.991,1025.28 688.458,1025.28C738.923,1025.28 779.859,1039.76 779.859,1057.62" style="fill:rgb(242,153,18);fill-rule:nonzero;"/>
                </g>
            </g>
        </g>
        <g transform="matrix(1,0,0,1,-170.538,-489.85)">
            <g transform="matrix(0.147855,0,0,0.147855,170.041,489.224)">
                <g>
                    <path d="M597.056,1047.33C597.056,1065.19 637.992,1079.67 688.458,1079.67C738.924,1079.67 779.859,1065.19 779.859,1047.33C779.859,1029.47 738.924,1014.99 688.458,1014.99C637.992,1014.99 597.056,1029.47 597.056,1047.33Z" style="fill:url(#_Linear25);fill-rule:nonzero;"/>
                </g>
            </g>
        </g>
        <g transform="matrix(1,0,0,1,-170.538,-489.85)">
            <g transform="matrix(0.147855,0,0,0.147855,170.041,489.224)">
                <g>
                    <path d="M832.771,1084.59C781.656,1084.59 750.372,1099.71 750.372,1107.94C750.372,1116.16 781.656,1131.29 832.771,1131.29C883.89,1131.29 915.169,1116.16 915.169,1107.94C915.169,1099.71 883.89,1084.59 832.771,1084.59M832.771,1149.27C782.883,1149.27 732.382,1135.07 732.382,1107.94C732.382,1080.8 782.883,1066.61 832.771,1066.61C882.658,1066.61 933.159,1080.8 933.159,1107.94C933.159,1135.07 882.658,1149.27 832.771,1149.27" style="fill:rgb(242,153,18);fill-rule:nonzero;"/>
                    <path d="M832.771,1074.3C781.656,1074.3 750.372,1089.41 750.372,1097.64C750.372,1105.87 781.656,1120.98 832.771,1120.98C883.89,1120.98 915.169,1105.87 915.169,1097.64C915.169,1089.41 883.89,1074.3 832.771,1074.3M832.771,1138.97C782.883,1138.97 732.382,1124.77 732.382,1097.64C732.382,1070.51 782.883,1056.31 832.771,1056.31C882.658,1056.31 933.159,1070.51 933.159,1097.64C933.159,1124.77 882.658,1138.97 832.771,1138.97" style="fill:rgb(242,153,18);fill-rule:nonzero;"/>
                    <path d="M924.172,1107.94C924.172,1125.79 883.254,1140.27 832.772,1140.27C782.287,1140.27 741.385,1125.79 741.385,1107.94C741.385,1090.07 782.287,1075.6 832.772,1075.6C883.254,1075.6 924.172,1090.07 924.172,1107.94" style="fill:rgb(242,153,18);fill-rule:nonzero;"/>
                </g>
            </g>
        </g>
        <g transform="matrix(1,0,0,1,-170.538,-489.85)">
            <g transform="matrix(0.147855,0,0,0.147855,170.041,489.224)">
                <g>
                    <path d="M741.385,1097.64C741.385,1115.49 782.287,1129.97 832.771,1129.97C883.254,1129.97 924.172,1115.49 924.172,1097.64C924.172,1079.78 883.254,1065.3 832.771,1065.3C782.287,1065.3 741.385,1079.78 741.385,1097.64Z" style="fill:url(#_Linear26);fill-rule:nonzero;"/>
                </g>
            </g>
        </g>
        <g transform="matrix(1,0,0,1,-170.538,-489.85)">
            <g transform="matrix(0.147855,0,0,0.147855,170.041,489.224)">
                <g>
                    <path d="M778.382,999.776C773.529,999.776 769.819,1000.79 768.712,1002.45C764.141,1009.29 781.725,1039.25 824.171,1067.7C850.619,1085.4 878.786,1096.85 895.986,1096.85C900.82,1096.85 904.531,1095.82 905.638,1094.16C910.23,1087.32 892.646,1057.35 850.161,1028.9C823.732,1011.21 795.543,999.776 778.382,999.776M895.986,1114.83C875.166,1114.83 843.815,1102.5 814.186,1082.64C772.722,1054.88 738.677,1014.98 753.765,992.444C757.017,987.583 763.929,981.777 778.382,981.777C799.203,981.777 830.539,994.102 860.185,1013.96C901.629,1041.72 935.692,1081.62 920.586,1104.17C917.333,1109.03 910.404,1114.83 895.986,1114.83" style="fill:rgb(242,153,18);fill-rule:nonzero;"/>
                    <path d="M784.114,991.212C779.263,991.212 775.551,992.239 774.443,993.894C769.873,1000.73 787.437,1030.7 829.906,1059.14C856.351,1076.86 884.521,1088.28 901.682,1088.28C906.553,1088.28 910.263,1087.26 911.353,1085.6C912.724,1083.57 912.531,1076.06 902.103,1062.08C891.766,1048.21 875.342,1033.39 855.893,1020.36C829.466,1002.65 801.279,991.212 784.114,991.212M901.682,1106.27C880.898,1106.27 849.563,1093.94 819.916,1074.1C778.453,1046.33 744.392,1006.44 759.498,983.88C762.751,979.019 769.66,973.229 784.114,973.229C804.934,973.229 836.269,985.559 865.9,1005.41C887.017,1019.55 904.989,1035.86 916.522,1051.34C933.686,1074.37 931.329,1088.12 926.318,1095.61C923.065,1100.47 916.136,1106.27 901.682,1106.27" style="fill:rgb(242,153,18);fill-rule:nonzero;"/>
                    <path d="M913.112,1099.16C903.159,1113.99 861.117,1103.26 819.176,1075.18C777.239,1047.08 751.304,1012.29 761.22,997.445C771.173,982.605 813.235,993.348 855.154,1021.44C897.11,1049.52 923.048,1084.32 913.112,1099.16" style="fill:rgb(242,153,18);fill-rule:nonzero;"/>
                </g>
            </g>
        </g>
        <g transform="matrix(1,0,0,1,-170.538,-489.85)">
            <g transform="matrix(0.147855,0,0,0.147855,170.041,489.224)">
                <g>
                    <path d="M766.953,988.896C757.037,1003.73 782.973,1038.53 824.911,1066.61C866.865,1094.69 908.911,1105.44 918.844,1090.6C928.781,1075.77 902.844,1040.97 860.888,1012.88C831.753,993.361 802.555,982.219 784.11,982.22C776.016,982.221 769.989,984.368 766.953,988.896Z" style="fill:url(#_Linear27);fill-rule:nonzero;"/>
                </g>
            </g>
        </g>
        <g transform="matrix(1,0,0,1,-170.538,-489.85)">
            <g transform="matrix(0.147855,0,0,0.147855,170.041,489.224)">
                <g>
                    <path d="M1134.99,539.799C1118,539.799 1104.22,525.728 1104.22,508.352C1104.22,490.972 1118,476.886 1134.99,476.886C1151.97,476.886 1165.73,490.972 1165.73,508.352C1165.73,525.728 1151.97,539.799 1134.99,539.799" style="fill:rgb(254,254,254);fill-rule:nonzero;"/>
                    <path d="M1134.99,602.727C1118,602.727 1104.22,588.641 1104.22,571.266C1104.22,553.884 1118,539.798 1134.99,539.798C1151.97,539.798 1165.73,553.884 1165.73,571.266C1165.73,588.641 1151.97,602.727 1134.99,602.727" style="fill:rgb(254,254,254);fill-rule:nonzero;"/>
                    <path d="M1134.99,665.642C1118,665.642 1104.22,651.555 1104.22,634.185C1104.22,616.804 1118,602.728 1134.99,602.728C1151.97,602.728 1165.73,616.804 1165.73,634.185C1165.73,651.555 1151.97,665.642 1134.99,665.642" style="fill:rgb(254,254,254);fill-rule:nonzero;"/>
                    <path d="M1134.99,728.556C1118,728.556 1104.22,714.484 1104.22,697.109C1104.22,679.728 1118,665.642 1134.99,665.642C1151.97,665.642 1165.73,679.728 1165.73,697.109C1165.73,714.484 1151.97,728.556 1134.99,728.556" style="fill:rgb(254,254,254);fill-rule:nonzero;"/>
                    <path d="M1134.99,791.484C1118,791.484 1104.22,777.398 1104.22,760.022C1104.22,742.641 1118,728.555 1134.99,728.555C1151.97,728.555 1165.73,742.641 1165.73,760.022C1165.73,777.398 1151.97,791.484 1134.99,791.484" style="fill:rgb(254,254,254);fill-rule:nonzero;"/>
                    <path d="M1134.99,854.398C1118,854.398 1104.22,840.312 1104.22,822.941C1104.22,805.56 1118,791.484 1134.99,791.484C1151.97,791.484 1165.73,805.56 1165.73,822.941C1165.73,840.312 1151.97,854.398 1134.99,854.398" style="fill:rgb(254,254,254);fill-rule:nonzero;"/>
                    <path d="M1353.9,695.337C1291.74,697.465 1290.02,699.182 1287.9,761.35C1285.77,699.182 1284.06,697.465 1221.91,695.337C1284.06,693.212 1285.77,691.492 1287.9,629.324C1290.02,691.492 1291.74,693.212 1353.9,695.337" style="fill:rgb(249,191,0);fill-rule:nonzero;"/>
                    <path d="M509.611,358.484C447.449,360.611 445.724,362.329 443.613,424.497C441.481,362.329 439.768,360.611 377.615,358.484C439.768,356.359 441.481,354.639 443.613,292.471C445.724,354.639 447.449,356.359 509.611,358.484" style="fill:rgb(249,191,0);fill-rule:nonzero;"/>
                    <path d="M1529.82,522.571C1380.5,527.679 1376.38,531.81 1371.28,681.13C1366.18,531.81 1362.05,527.679 1212.75,522.571C1362.05,517.467 1366.18,513.34 1371.28,364.016C1376.38,513.34 1380.5,517.467 1529.82,522.571" style="fill:rgb(249,191,0);fill-rule:nonzero;"/>
                    <path d="M290.425,839.401C155.237,844.024 151.491,847.76 146.903,982.945C142.26,847.76 138.533,844.024 3.363,839.401C138.533,834.774 142.26,831.037 146.903,695.853C151.491,831.037 155.237,834.774 290.425,839.401" style="fill:rgb(249,191,0);fill-rule:nonzero;"/>
                </g>
            </g>
        </g>
        <g transform="matrix(1,0,0,1,-170.538,-489.85)">
            <g transform="matrix(1.02008,0,0,1.0023,-148.087,-84.5703)">
                <g>
                    <g>
                        <g transform="matrix(1,0,0,1,568.409,698.948)">
                            <text x="0px" y="0px" style="font-family:'KohinoorTelugu-Semibold', 'Kohinoor Telugu';font-weight:600;font-size:120px;fill:rgb(229,35,41);">Prospectro</text>
                        </g>
                        <g transform="matrix(1,0,0,1,1172.73,698.948)">
                            <text x="0px" y="0px" style="font-family:'KohinoorTelugu-Semibold', 'Kohinoor Telugu';font-weight:600;font-size:120px;fill:rgb(229,35,41);">ve</text>
                        </g>
                    </g>
                </g>
            </g>
        </g>
    </g>
    <defs>
        <linearGradient id="_Linear1" x1="0" y1="0" x2="1" y2="0" gradientUnits="userSpaceOnUse" gradientTransform="matrix(175.535,0,0,175.535,768.979,412.167)"><stop offset="0" style="stop-color:rgb(255,246,154);stop-opacity:1"/><stop offset="0.5" style="stop-color:rgb(254,217,0);stop-opacity:1"/><stop offset="1" style="stop-color:rgb(255,246,154);stop-opacity:1"/></linearGradient>
        <linearGradient id="_Linear2" x1="0" y1="0" x2="1" y2="0" gradientUnits="userSpaceOnUse" gradientTransform="matrix(175.783,0,0,175.783,493.506,439.547)"><stop offset="0" style="stop-color:rgb(255,246,154);stop-opacity:1"/><stop offset="0.5" style="stop-color:rgb(254,217,0);stop-opacity:1"/><stop offset="1" style="stop-color:rgb(255,246,154);stop-opacity:1"/></linearGradient>
        <linearGradient id="_Linear3" x1="0" y1="0" x2="1" y2="0" gradientUnits="userSpaceOnUse" gradientTransform="matrix(165.695,0,0,165.695,369.669,502.89)"><stop offset="0" style="stop-color:rgb(255,246,154);stop-opacity:1"/><stop offset="0.5" style="stop-color:rgb(254,217,0);stop-opacity:1"/><stop offset="1" style="stop-color:rgb(255,246,154);stop-opacity:1"/></linearGradient>
        <linearGradient id="_Linear4" x1="0" y1="0" x2="1" y2="0" gradientUnits="userSpaceOnUse" gradientTransform="matrix(165.712,0,0,165.712,597.735,433.873)"><stop offset="0" style="stop-color:rgb(255,246,154);stop-opacity:1"/><stop offset="0.5" style="stop-color:rgb(254,217,0);stop-opacity:1"/><stop offset="1" style="stop-color:rgb(255,246,154);stop-opacity:1"/></linearGradient>
        <linearGradient id="_Linear5" x1="0" y1="0" x2="1" y2="0" gradientUnits="userSpaceOnUse" gradientTransform="matrix(152.123,0,0,152.123,633.947,511.774)"><stop offset="0" style="stop-color:rgb(255,246,154);stop-opacity:1"/><stop offset="0.5" style="stop-color:rgb(254,217,0);stop-opacity:1"/><stop offset="1" style="stop-color:rgb(255,246,154);stop-opacity:1"/></linearGradient>
        <linearGradient id="_Linear6" x1="0" y1="0" x2="1" y2="0" gradientUnits="userSpaceOnUse" gradientTransform="matrix(152.124,0,0,152.124,573.922,394.734)"><stop offset="0" style="stop-color:rgb(255,246,154);stop-opacity:1"/><stop offset="0.5" style="stop-color:rgb(254,217,0);stop-opacity:1"/><stop offset="1" style="stop-color:rgb(255,246,154);stop-opacity:1"/></linearGradient>
        <linearGradient id="_Linear7" x1="0" y1="0" x2="1" y2="0" gradientUnits="userSpaceOnUse" gradientTransform="matrix(178.125,0,0,178.125,761.503,465.261)"><stop offset="0" style="stop-color:rgb(255,246,154);stop-opacity:1"/><stop offset="0.5" style="stop-color:rgb(254,217,0);stop-opacity:1"/><stop offset="1" style="stop-color:rgb(255,246,154);stop-opacity:1"/></linearGradient>
        <linearGradient id="_Linear8" x1="0" y1="0" x2="1" y2="0" gradientUnits="userSpaceOnUse" gradientTransform="matrix(178.127,0,0,178.127,995.582,474.268)"><stop offset="0" style="stop-color:rgb(255,246,154);stop-opacity:1"/><stop offset="0.5" style="stop-color:rgb(254,217,0);stop-opacity:1"/><stop offset="1" style="stop-color:rgb(255,246,154);stop-opacity:1"/></linearGradient>
        <linearGradient id="_Linear9" x1="0" y1="0" x2="1" y2="0" gradientUnits="userSpaceOnUse" gradientTransform="matrix(165.771,0,0,165.771,1035.8,438.653)"><stop offset="0" style="stop-color:rgb(255,246,154);stop-opacity:1"/><stop offset="0.5" style="stop-color:rgb(254,217,0);stop-opacity:1"/><stop offset="1" style="stop-color:rgb(255,246,154);stop-opacity:1"/></linearGradient>
        <linearGradient id="_Linear10" x1="0" y1="0" x2="1" y2="0" gradientUnits="userSpaceOnUse" gradientTransform="matrix(178.127,0,0,178.127,679.209,561.165)"><stop offset="0" style="stop-color:rgb(255,246,154);stop-opacity:1"/><stop offset="0.5" style="stop-color:rgb(254,217,0);stop-opacity:1"/><stop offset="1" style="stop-color:rgb(255,246,154);stop-opacity:1"/></linearGradient>
        <linearGradient id="_Linear11" x1="0" y1="0" x2="1" y2="0" gradientUnits="userSpaceOnUse" gradientTransform="matrix(152.125,0,0,152.125,928.41,485.854)"><stop offset="0" style="stop-color:rgb(255,246,154);stop-opacity:1"/><stop offset="0.5" style="stop-color:rgb(254,217,0);stop-opacity:1"/><stop offset="1" style="stop-color:rgb(255,246,154);stop-opacity:1"/></linearGradient>
        <linearGradient id="_Linear12" x1="0" y1="0" x2="1" y2="0" gradientUnits="userSpaceOnUse" gradientTransform="matrix(178.144,0,0,178.144,632.681,573.947)"><stop offset="0" style="stop-color:rgb(255,246,154);stop-opacity:1"/><stop offset="0.5" style="stop-color:rgb(254,217,0);stop-opacity:1"/><stop offset="1" style="stop-color:rgb(255,246,154);stop-opacity:1"/></linearGradient>
        <linearGradient id="_Linear13" x1="0" y1="0" x2="1" y2="0" gradientUnits="userSpaceOnUse" gradientTransform="matrix(178.128,0,0,178.128,890.357,562.176)"><stop offset="0" style="stop-color:rgb(255,246,154);stop-opacity:1"/><stop offset="0.5" style="stop-color:rgb(254,217,0);stop-opacity:1"/><stop offset="1" style="stop-color:rgb(255,246,154);stop-opacity:1"/></linearGradient>
        <linearGradient id="_Linear14" x1="0" y1="0" x2="1" y2="0" gradientUnits="userSpaceOnUse" gradientTransform="matrix(178.125,0,0,178.125,761.503,578.433)"><stop offset="0" style="stop-color:rgb(255,246,154);stop-opacity:1"/><stop offset="0.5" style="stop-color:rgb(254,217,0);stop-opacity:1"/><stop offset="1" style="stop-color:rgb(255,246,154);stop-opacity:1"/></linearGradient>
        <linearGradient id="_Linear15" x1="0" y1="0" x2="1" y2="0" gradientUnits="userSpaceOnUse" gradientTransform="matrix(178.127,0,0,178.127,754.767,550.136)"><stop offset="0" style="stop-color:rgb(255,246,154);stop-opacity:1"/><stop offset="0.5" style="stop-color:rgb(254,217,0);stop-opacity:1"/><stop offset="1" style="stop-color:rgb(255,246,154);stop-opacity:1"/></linearGradient>
        <linearGradient id="_Linear16" x1="0" y1="0" x2="1" y2="0" gradientUnits="userSpaceOnUse" gradientTransform="matrix(178.125,0,0,178.125,910.827,412.083)"><stop offset="0" style="stop-color:rgb(255,246,154);stop-opacity:1"/><stop offset="0.5" style="stop-color:rgb(254,217,0);stop-opacity:1"/><stop offset="1" style="stop-color:rgb(255,246,154);stop-opacity:1"/></linearGradient>
        <linearGradient id="_Linear17" x1="0" y1="0" x2="1" y2="0" gradientUnits="userSpaceOnUse" gradientTransform="matrix(178.124,0,0,178.124,817.562,626.686)"><stop offset="0" style="stop-color:rgb(255,246,154);stop-opacity:1"/><stop offset="0.5" style="stop-color:rgb(254,217,0);stop-opacity:1"/><stop offset="1" style="stop-color:rgb(255,246,154);stop-opacity:1"/></linearGradient>
        <linearGradient id="_Linear18" x1="0" y1="0" x2="1" y2="0" gradientUnits="userSpaceOnUse" gradientTransform="matrix(178.144,0,0,178.144,568.377,602.964)"><stop offset="0" style="stop-color:rgb(255,246,154);stop-opacity:1"/><stop offset="0.5" style="stop-color:rgb(254,217,0);stop-opacity:1"/><stop offset="1" style="stop-color:rgb(255,246,154);stop-opacity:1"/></linearGradient>
        <linearGradient id="_Linear19" x1="0" y1="0" x2="1" y2="0" gradientUnits="userSpaceOnUse" gradientTransform="matrix(178.127,0,0,178.127,536.884,554.411)"><stop offset="0" style="stop-color:rgb(255,246,154);stop-opacity:1"/><stop offset="0.5" style="stop-color:rgb(254,217,0);stop-opacity:1"/><stop offset="1" style="stop-color:rgb(255,246,154);stop-opacity:1"/></linearGradient>
        <linearGradient id="_Linear20" x1="0" y1="0" x2="1" y2="0" gradientUnits="userSpaceOnUse" gradientTransform="matrix(178.145,0,0,178.145,323.042,559.563)"><stop offset="0" style="stop-color:rgb(255,246,154);stop-opacity:1"/><stop offset="0.5" style="stop-color:rgb(254,217,0);stop-opacity:1"/><stop offset="1" style="stop-color:rgb(255,246,154);stop-opacity:1"/></linearGradient>
        <linearGradient id="_Linear21" x1="0" y1="0" x2="1" y2="0" gradientUnits="userSpaceOnUse" gradientTransform="matrix(168.996,0,0,168.996,683.149,644.301)"><stop offset="0" style="stop-color:rgb(255,246,154);stop-opacity:1"/><stop offset="0.5" style="stop-color:rgb(254,217,0);stop-opacity:1"/><stop offset="1" style="stop-color:rgb(255,246,154);stop-opacity:1"/></linearGradient>
        <linearGradient id="_Linear22" x1="0" y1="0" x2="1" y2="0" gradientUnits="userSpaceOnUse" gradientTransform="matrix(178.144,0,0,178.144,824.559,1061.46)"><stop offset="0" style="stop-color:rgb(255,246,154);stop-opacity:1"/><stop offset="0.5" style="stop-color:rgb(254,217,0);stop-opacity:1"/><stop offset="1" style="stop-color:rgb(255,246,154);stop-opacity:1"/></linearGradient>
        <linearGradient id="_Linear23" x1="0" y1="0" x2="1" y2="0" gradientUnits="userSpaceOnUse" gradientTransform="matrix(173.457,0,0,173.457,936.17,1013.61)"><stop offset="0" style="stop-color:rgb(255,246,154);stop-opacity:1"/><stop offset="0.5" style="stop-color:rgb(254,217,0);stop-opacity:1"/><stop offset="1" style="stop-color:rgb(255,246,154);stop-opacity:1"/></linearGradient>
        <linearGradient id="_Linear24" x1="0" y1="0" x2="1" y2="0" gradientUnits="userSpaceOnUse" gradientTransform="matrix(182.769,0,0,182.769,603.985,1076.37)"><stop offset="0" style="stop-color:rgb(255,246,154);stop-opacity:1"/><stop offset="0.5" style="stop-color:rgb(254,217,0);stop-opacity:1"/><stop offset="1" style="stop-color:rgb(255,246,154);stop-opacity:1"/></linearGradient>
        <linearGradient id="_Linear25" x1="0" y1="0" x2="1" y2="0" gradientUnits="userSpaceOnUse" gradientTransform="matrix(182.803,0,0,182.803,597.056,1047.33)"><stop offset="0" style="stop-color:rgb(255,246,154);stop-opacity:1"/><stop offset="0.5" style="stop-color:rgb(254,217,0);stop-opacity:1"/><stop offset="1" style="stop-color:rgb(255,246,154);stop-opacity:1"/></linearGradient>
        <linearGradient id="_Linear26" x1="0" y1="0" x2="1" y2="0" gradientUnits="userSpaceOnUse" gradientTransform="matrix(182.787,0,0,182.787,741.385,1097.64)"><stop offset="0" style="stop-color:rgb(255,246,154);stop-opacity:1"/><stop offset="0.5" style="stop-color:rgb(254,217,0);stop-opacity:1"/><stop offset="1" style="stop-color:rgb(255,246,154);stop-opacity:1"/></linearGradient>
        <linearGradient id="_Linear27" x1="0" y1="0" x2="1" y2="0" gradientUnits="userSpaceOnUse" gradientTransform="matrix(156.123,0,0,156.123,764.841,1039.75)"><stop offset="0" style="stop-color:rgb(255,246,154);stop-opacity:1"/><stop offset="0.5" style="stop-color:rgb(254,217,0);stop-opacity:1"/><stop offset="1" style="stop-color:rgb(255,246,154);stop-opacity:1"/></linearGradient>
    </defs>
</svg>
